<?xml version="1.0" encoding="UTF-8"?>
<svg width="72px" height="72px" viewBox="0 0 72 72" version="1.1" xmlns="http://www.w3.org/2000/svg" xmlns:xlink="http://www.w3.org/1999/xlink">
    <!-- Generator: Sketch 46.2 (44496) - http://www.bohemiancoding.com/sketch -->
    <title>Actionbar_icon_dark_search</title>
    <desc>Created with Sketch.</desc>
    <defs></defs>
    <g id="WeChat-UI-Kit" stroke="none" stroke-width="1" fill="none" fill-rule="evenodd">
        <g id="Actionbar_icon_dark_search" fill="#000000">
            <g id="Fill-1">
                <g>
                    <path d="M51.487274,48.3052935 L62.8492424,59.6672619 L59.6672619,62.8492424 L48.3052935,51.487274 C44.1510297,54.9303729 38.8172135,57 33,57 C19.7451429,57 9,46.2548571 9,33 C9,19.7451429 19.7451429,9 33,9 C46.2548571,9 57,19.7451429 57,33 C57,38.8172135 54.9303729,44.1510297 51.487274,48.3052935 Z M52.5422788,33.0066656 C52.5422788,22.2370942 43.8118503,13.5066656 33.0422788,13.5066656 C22.2727074,13.5066656 13.5422788,22.2370942 13.5422788,33.0066656 C13.5422788,43.7762371 22.2727074,52.5066656 33.0422788,52.5066656 C43.8118503,52.5066656 52.5422788,43.7762371 52.5422788,33.0066656 Z"></path>
                </g>
            </g>
        </g>
    </g>
</svg>