<?xml version="1.0" encoding="UTF-8"?>
<svg width="72px" height="72px" viewBox="0 0 72 72" version="1.1" xmlns="http://www.w3.org/2000/svg" xmlns:xlink="http://www.w3.org/1999/xlink">
    <!-- Generator: Sketch Beta 47 (45292) - http://www.bohemiancoding.com/sketch -->
    <title>Icons/Dark/setting</title>
    <desc>Created with Sketch Beta.</desc>
    <defs></defs>
    <g id="Demo" stroke="none" stroke-width="1" fill="none" fill-rule="evenodd">
        <g id="Icons/Dark/setting" fill-rule="nonzero" fill="#000000">
            <g id="common_icons_setting">
                <path d="M34.3107951,9.6 L32.3772155,17.3343181 L30.4355779,17.9314268 C29.3022004,18.2799726 28.2065437,18.7347868 27.1612648,19.2890213 L25.3655427,20.2411608 L18.5268292,16.1379327 L16.1379327,18.5268292 L20.2411608,25.3655427 L19.2890213,27.1612648 C18.7347868,28.2065437 18.2799726,29.3022004 17.9314268,30.4355779 L17.3343181,32.3772155 L9.6,34.3107951 L9.6,37.6892049 L17.3343181,39.6227845 L17.9314268,41.5644221 C18.2799726,42.6977996 18.7347868,43.7934563 19.2890213,44.8387352 L20.2411608,46.6344573 L16.1379327,53.4731708 L18.5268292,55.8620673 L25.3655427,51.7588392 L27.1612648,52.7109787 C28.2065437,53.2652132 29.3022004,53.7200274 30.4355779,54.0685732 L32.3772155,54.6656819 L34.3107951,62.4 L37.6892049,62.4 L39.6227845,54.6656819 L41.5644221,54.0685732 C42.6977996,53.7200274 43.7934563,53.2652132 44.8387352,52.7109787 L46.6344573,51.7588392 L53.4731708,55.8620673 L55.8620673,53.4731708 L51.7588392,46.6344573 L52.7109787,44.8387352 C53.2652132,43.7934563 53.7200274,42.6977996 54.0685732,41.5644221 L54.6656819,39.6227845 L62.4,37.6892049 L62.4,34.3107951 L54.6656819,32.3772155 L54.0685732,30.4355779 C53.7200274,29.3022004 53.2652132,28.2065437 52.7109787,27.1612648 L51.7588392,25.3655427 L55.8620673,18.5268292 L53.4731708,16.1379327 L46.6344573,20.2411608 L44.8387352,19.2890213 C43.7934563,18.7347868 42.6977996,18.2799726 41.5644221,17.9314268 L39.6227845,17.3343181 L37.6892049,9.6 L34.3107951,9.6 Z M46.5251546,16.108457 L52.0226922,12.8099345 C53.2031195,12.1016781 54.7140945,12.2876877 55.6874998,13.2610929 L58.7389071,16.3125002 C59.7123123,17.2859055 59.8983219,18.7968805 59.1900655,19.9773078 L55.891543,25.4748454 C56.5473645,26.7117159 57.0911997,28.0170663 57.5095361,29.377384 L63.7276069,30.9319017 C65.0631079,31.265777 66,32.4657263 66,33.8423292 L66,38.1576708 C66,39.5342737 65.0631079,40.734223 63.7276069,41.0680983 L57.5095361,42.622616 C57.0911997,43.9829337 56.5473645,45.2882841 55.891543,46.5251546 L59.1900655,52.0226922 C59.8983219,53.2031195 59.7123123,54.7140945 58.7389071,55.6874998 L55.6874998,58.7389071 C54.7140945,59.7123123 53.2031195,59.8983219 52.0226922,59.1900655 L46.5251546,55.891543 C45.2882841,56.5473645 43.9829337,57.0911997 42.622616,57.5095361 L41.0680983,63.7276069 C40.734223,65.0631079 39.5342737,66 38.1576708,66 L33.8423292,66 C32.4657263,66 31.265777,65.0631079 30.9319017,63.7276069 L29.377384,57.5095361 C28.0170663,57.0911997 26.7117159,56.5473645 25.4748454,55.891543 L19.9773078,59.1900655 C18.7968805,59.8983219 17.2859055,59.7123123 16.3125002,58.7389071 L13.2610929,55.6874998 C12.2876877,54.7140945 12.1016781,53.2031195 12.8099345,52.0226922 L16.108457,46.5251546 C15.4526355,45.2882841 14.9088003,43.9829337 14.4904639,42.622616 L8.27239312,41.0680983 C6.93689212,40.734223 6,39.5342737 6,38.1576708 L6,33.8423292 C6,32.4657263 6.93689212,31.265777 8.27239312,30.9319017 L14.4904639,29.377384 C14.9088003,28.0170663 15.4526355,26.7117159 16.108457,25.4748454 L12.8099345,19.9773078 C12.1016781,18.7968805 12.2876877,17.2859055 13.2610929,16.3125002 L16.3125002,13.2610929 C17.2859055,12.2876877 18.7968805,12.1016781 19.9773078,12.8099345 L25.4748454,16.108457 C26.7117159,15.4526355 28.0170663,14.9088003 29.377384,14.4904639 L30.9319017,8.27239312 C31.265777,6.93689212 32.4657263,6 33.8423292,6 L38.1576708,6 C39.5342737,6 40.734223,6.93689212 41.0680983,8.27239312 L42.622616,14.4904639 C43.9829337,14.9088003 45.2882841,15.4526355 46.5251546,16.108457 Z" id="Combined-Shape"></path>
                <path d="M36,45 C40.9705627,45 45,40.9705627 45,36 C45,31.0294373 40.9705627,27 36,27 C31.0294373,27 27,31.0294373 27,36 C27,40.9705627 31.0294373,45 36,45 Z M36,48.6 C29.0412122,48.6 23.4,42.9587878 23.4,36 C23.4,29.0412122 29.0412122,23.4 36,23.4 C42.9587878,23.4 48.6,29.0412122 48.6,36 C48.6,42.9587878 42.9587878,48.6 36,48.6 Z" id="Oval-2"></path>
            </g>
        </g>
    </g>
</svg>