<?xml version="1.0" encoding="UTF-8" standalone="no"?>
<svg width="96px" height="96px" viewBox="0 0 96 96" version="1.1" xmlns="http://www.w3.org/2000/svg" xmlns:xlink="http://www.w3.org/1999/xlink">
    <!-- Generator: Sketch 39.1 (31720) - http://www.bohemiancoding.com/sketch -->
    <title>Moments</title>
    <desc>Created with Sketch.</desc>
    <defs></defs>
    <g id="Buttonsheet" stroke="none" stroke-width="1" fill="none" fill-rule="evenodd">
        <g id="Moments" fill="#7C8186">
            <path d="M39,87.1745381 C41.6365942,87.715578 44.3654307,88 47.1602839,88 C52.3972988,88 57.4023513,87.0013324 62,85.1849514 L39,62 L39,87.1745381 Z M84.1815348,34 L61,57 L86.1740394,57 C86.7154215,54.3644327 87,51.6362547 87,48.841668 C87,43.6035119 86.0001051,38.5975605 84.1815348,34 L84.1815348,34 Z M68.3679603,82 C74.7722289,77.6101382 79.8887963,71.3640553 83,64 L51,64 L68.3679603,82 Z M7,48.1344331 C7,53.3813166 8.00163001,58.3948445 9.82397686,63 L33,40 L7.81980545,40 C7.2825344,42.6284164 7,45.3486374 7,48.1344331 L7,48.1344331 Z M24.6168557,15 C18.2165888,19.3924679 13.1051812,25.6380801 10,33 L42,33 L24.6168557,15 Z M63,11 L63,43 L81,25.6227814 C76.6096775,19.2197595 70.3636991,14.1064078 63,11 L63,11 Z M32,84 L32,52 L14,69.3741239 C18.3920092,75.7761709 24.6377257,80.8899766 32,84 L32,84 Z M56,8.8203099 C53.3721515,8.28269281 50.6525813,8 47.8674957,8 C42.6194798,8 37.6050605,9.00330911 33,10.8269281 L56,34 L56,8.8203099 Z" id="Fill-1"></path>
        </g>
    </g>
</svg>