<?xml version="1.0" encoding="UTF-8" standalone="no"?>
<svg width="96px" height="96px" viewBox="0 0 96 96" version="1.1" xmlns="http://www.w3.org/2000/svg" xmlns:xlink="http://www.w3.org/1999/xlink">
    <!-- Generator: Sketch 39.1 (31720) - http://www.bohemiancoding.com/sketch -->
    <title>Forward</title>
    <desc>Created with Sketch.</desc>
    <defs></defs>
    <g id="Buttonsheet" stroke="none" stroke-width="1" fill="none" fill-rule="evenodd">
        <g id="Forward" fill="#7C8186">
            <g id="Page-1" transform="translate(8.000000, 9.000000)">
                <path d="M73,34.0001804 L73,57.0001804 C72.9,59.0346804 71.0865,60.8573232 69,61.0001804 L12,61.0001804 C9.91305,60.8573232 8.1,59.0346804 8,57.0001804 L8,24.0001804 C8.1,21.9661328 9.91305,20.1430375 12,20.0001804 L19,20.0001804 C19.35,20.1339899 21.7467,16.0670852 29,12.0001804 L12,12.0001804 C5.4396,12.0001804 0,17.4685613 0,24.0001804 L0,57.0001804 C0,63.5317994 5.4396,69.0001804 12,69.0001804 L69,69.0001804 C75.5604,69.0001804 81,63.5317994 81,57.0001804 L81,28.0001804 L73,34.0001804 Z M53,29.0001804 L53,41.0001804 L77,20.0001804 L53,0.000180392157 L53,12.0001804 C32.7326609,12.2737213 16.5768792,28.1720478 16,48.0001804 C24.4940486,36.7958013 37.6718498,29.3784915 53,29.0001804 Z" id="Fill-1"></path>
            </g>
        </g>
    </g>
</svg>