<?xml version="1.0" encoding="UTF-8" standalone="no"?>
<svg width="60px" height="60px" viewBox="0 0 60 60" version="1.1" xmlns="http://www.w3.org/2000/svg" xmlns:xlink="http://www.w3.org/1999/xlink" xmlns:sketch="http://www.bohemiancoding.com/sketch/ns">
    <!-- Generator: Sketch 3.3.3 (12072) - http://www.bohemiancoding.com/sketch -->
    <title>emoji_download_cancel_normal</title>
    <desc>Created with Sketch.</desc>
    <defs></defs>
    <g id="Page-1" stroke="none" stroke-width="1" fill="none" fill-rule="evenodd" sketch:type="MSPage">
        <g id="emoji_download_cancel_normal" sketch:type="MSLayerGroup">
            <g id="#777777ec" fill="#777777" opacity="0.93" sketch:type="MSShapeGroup">
                <path d="M27.26,0 L32.62,0 C46.7,1.17 58.74,13.2 60,27.26 L60,32.63 C58.82,46.7 46.8,58.74 32.74,60 L27.39,60 C13.31,58.84 1.26,46.81 0,32.75 L0,27.37 C1.18,13.3 13.2,1.26 27.26,0 L27.26,0 Z M24.42,2.54 C10.35,5.18 -0.2,19.83 2.27,34.03 C4.12,48.83 19.33,60.34 34.09,57.72 C48.99,55.83 60.51,40.38 57.66,25.54 C55.54,10.38 39.42,-1 24.42,2.54 L24.42,2.54 Z" id="Shape"></path>
            </g>
            <g id="#ffffffff" transform="translate(1.000000, 1.000000)" fill="#FFFFFF" sketch:type="MSShapeGroup">
                <path d="M23.42,1.54 C38.42,-2 54.54,9.38 56.66,24.54 C59.51,39.38 47.99,54.83 33.09,56.72 C18.33,59.34 3.12,47.83 1.27,33.03 C-1.2,18.83 9.35,4.18 23.42,1.54 L23.42,1.54 Z M15.79,19.84 C18.57,23.09 21.82,25.9 24.75,29 C21.83,32.09 18.61,34.89 15.83,38.11 C14.2,40.53 17.34,43.76 19.81,42.23 C23.07,39.45 25.89,36.19 29,33.25 C32.08,36.16 34.88,39.39 38.1,42.16 C40.53,43.85 43.82,40.58 42.18,38.13 C39.41,34.89 36.17,32.1 33.25,29 C36.17,25.91 39.4,23.11 42.17,19.89 C43.83,17.44 40.55,14.16 38.11,15.83 C34.89,18.6 32.09,21.83 29,24.75 C25.91,21.82 23.1,18.59 19.87,15.81 C17.43,14.21 14.22,17.39 15.79,19.84 L15.79,19.84 Z" id="Shape"></path>
            </g>
            <g id="#808080ff" transform="translate(16.000000, 16.000000)" fill="#808080" sketch:type="MSShapeGroup">
                <path d="M0.79,4.84 C-0.78,2.39 2.43,-0.79 4.87,0.81 C8.1,3.59 10.91,6.82 14,9.75 C17.09,6.83 19.89,3.6 23.11,0.83 C25.55,-0.84 28.83,2.44 27.17,4.89 C24.4,8.11 21.17,10.91 18.25,14 C21.17,17.1 24.41,19.89 27.18,23.13 C28.82,25.58 25.53,28.85 23.1,27.16 C19.88,24.39 17.08,21.16 14,18.25 C10.89,21.19 8.07,24.45 4.81,27.23 C2.34,28.76 -0.8,25.53 0.83,23.11 C3.61,19.89 6.83,17.09 9.75,14 C6.82,10.9 3.57,8.09 0.79,4.84 L0.79,4.84 Z" id="Shape"></path>
            </g>
        </g>
    </g>
</svg>