<?xml version="1.0" encoding="UTF-8"?>
<svg width="72px" height="72px" viewBox="0 0 72 72" version="1.1" xmlns="http://www.w3.org/2000/svg" xmlns:xlink="http://www.w3.org/1999/xlink">
    <title>diehua</title>
    <g id="diehua" stroke="none" stroke-width="1" fill="none" fill-rule="evenodd" fill-opacity="0.8">
        <g id="叠化" transform="translate(18.000000, 18.000000)" fill="#FFFFFF">
            <path d="M35.2000979,1.3362876 C35.7134985,1.87354696 36,2.58805855 36,3.33117885 L36,32.6393165 C36,34.2340387 34.7072222,35.5268165 33.1125,35.5268165 C32.3693797,35.5268165 31.6548681,35.240315 31.1176087,34.7269144 L17.9129055,22.1086742 L4.92189969,34.6633678 C3.77510901,35.771524 1.94711341,35.7402045 0.838957256,34.5934138 C0.318703313,34.0550218 0.0279054752,33.3356052 0.0279054752,32.5869196 L0.0279054752,3.38357576 C0.0279054752,1.78885354 1.32068326,0.496075759 2.91540548,0.496075759 C3.66409104,0.496075759 4.38350772,0.786873597 4.92189969,1.30712754 L17.9129055,13.8606742 L31.1176087,1.24358092 C32.2705572,0.141832903 34.0983499,0.183339096 35.2000979,1.3362876 Z" id="形状结合"></path>
        </g>
    </g>
</svg>