<?xml version="1.0" encoding="UTF-8"?>
<svg width="72px" height="72px" viewBox="0 0 72 72" version="1.1" xmlns="http://www.w3.org/2000/svg" xmlns:xlink="http://www.w3.org/1999/xlink">
    <!-- Generator: Sketch 52.2 (67145) - http://www.bohemiancoding.com/sketch -->
    <title>Icons_Outlined_takephoto_nor</title>
    <desc>Created with Sketch.</desc>
    <g id="Icons_Outlined_takephoto_nor" stroke="none" stroke-width="1" fill="none" fill-rule="evenodd">
        <path d="M36.1096172,51.8320347 C36.4789473,50.0218291 36.6191784,49.5902421 37.1029274,48.37378 C37.6173002,47.0803096 38.3660406,45.4833294 39.3491485,43.5828396 L35.8975196,43.6879816 C34.0358573,43.6571494 32.7644645,43.0804765 31.9231513,42.5498301 M15.6453191,47.332759 C14.1950416,44.7577032 14.1700107,43.3400803 17.0844757,40.5398483 C19.0274523,38.673027 21.2840801,36.7358317 23.854359,34.7282623 C24.2460416,34.4125774 24.6861081,34.1705779 25.1523367,34.00258 C26.4881894,33.5212271 27.4507836,34.0546874 27.9431329,35.1355567 C27.4952288,33.2466802 31.0031716,32.7777892 33.0434268,32.4510658 C34.5110037,32.2160502 35.2561879,32.0981637 39.6431652,32.16007 C44.0301426,32.2219762 52.3968753,32.8514716 53.0827616,42.1623274 C53.334806,45.5838126 52.808718,50.0632097 51.5044973,55.6005188 C49.4390985,63.5818363 42.1060034,69.948035 31.2484146,66.4201905 C27.6151287,65.2396644 22.8377111,59.5877949 16.9161619,49.4645822 C16.7436037,49.2114429 15.8052922,47.6168011 15.6453191,47.332759 Z M28.1172029,34.0505257 C27.9435417,34.585 27.9074753,35.2090145 28.0489185,35.8147565 L28.442316,37.4995121 C28.9526666,39.6851288 30.270315,41.509167 32.0353169,42.6224169 M31.6900583,43.1519182 L22.775629,49.9576326 C19.9075352,51.6936611 18.0717712,50.6851363 16.16978,48.1388046 M26.2268735,33.0552631 L19.1946073,18.6071085 C18.3826251,16.2227553 19.5592703,13.5964525 21.8227178,12.741097 C24.1070055,11.8828942 26.1741539,13.0160465 27.4509841,15.5049252 L32.4197741,24.335132 C33.1461518,25.4736291 34.1884252,26.5982936 35.9288317,26.3237584 C37.6692382,26.0492232 38.7025841,25.0429783 38.7025841,23.4565326 L38.4870975,12.3511983 C38.4870975,10.0947743 39.5398531,8.17394501 41.8528051,7.71503501 C41.9380037,7.69813086 42.0236721,7.6839694 42.1096907,7.6725704 C44.6422584,7.33696013 46.9905526,9.11986922 47.4892525,11.7569263 L49.0950485,34.1963435" id="Shape" stroke="#000000" stroke-width="3.6" transform="translate(33.914159, 37.524385) rotate(-19.000000) translate(-33.914159, -37.524385) "></path>
        <path d="M54.6000004,14.2284275 L50.7758816,16.2498394 C50.4052867,16.4457342 49.9460561,16.3041118 49.7501613,15.9335169 C49.6328565,15.711599 49.6328565,15.4460371 49.7501613,15.2241192 L51.7715732,11.4000004 L49.7501613,7.57588157 C49.5542666,7.2052867 49.695889,6.74605611 50.0664838,6.55016134 C50.2884018,6.43285653 50.5539637,6.43285653 50.7758816,6.55016134 L54.6000004,8.57157325 L58.4241192,6.55016134 C58.7947141,6.35426656 59.2539446,6.49588897 59.4498394,6.86648384 C59.5671442,7.08840176 59.5671442,7.35396365 59.4498394,7.57588157 L57.4284275,11.4000004 L59.4498394,15.2241192 C59.6457342,15.5947141 59.5041118,16.0539446 59.1335169,16.2498394 C58.911599,16.3671442 58.6460371,16.3671442 58.4241192,16.2498394 L54.6000004,14.2284275 Z" id="Star" fill="#000000" transform="translate(54.600000, 11.400000) rotate(45.000000) translate(-54.600000, -11.400000) "></path>
    </g>
</svg>