<?xml version="1.0" encoding="UTF-8"?>
<svg width="32px" height="20px" viewBox="0 0 32 20" version="1.1" xmlns="http://www.w3.org/2000/svg" xmlns:xlink="http://www.w3.org/1999/xlink">
    <title>编组 2</title>
    <g id="配乐-&amp;-配音" stroke="none" stroke-width="1" fill="none" fill-rule="evenodd">
        <g id="剪刀-裁剪全部视频长度" transform="translate(-308.000000, -732.000000)">
            <g id="编组-2" transform="translate(309.000000, 733.000000)">
                <path d="M8.2854281,0 L28.7499729,0 C29.3022576,-1.01453063e-16 29.7499729,0.44771525 29.7499729,1 L29.7499729,17 C29.7499729,17.5522847 29.3022576,18 28.7499729,18 L8.2854281,18 C7.99607359,18 7.72090429,17.874665 7.53098274,17.6563629 L0.571031667,9.65636285 C0.243625485,9.28003126 0.243625485,8.71996874 0.571031667,8.34363715 L7.53098274,0.343637148 C7.72090429,0.125334981 7.99607359,5.31535607e-17 8.2854281,0 Z" id="矩形" stroke="#FFFFFF"></path>
                <g id="0.图标/面型/icons_filled_close" transform="translate(12.000000, 1.000000)" fill="#FFFFFF">
                    <g id="common_icons_close" transform="translate(-0.666667, -0.666667)">
                        <path d="M9.33333333,2.66666667 L9.33266667,7.99966667 L14.6666667,8 L14.6666667,9.33333333 L9.33266667,9.33266667 L9.33333333,14.6666667 L8,14.6666667 L7.99966667,9.33266667 L2.66666667,9.33333333 L2.66666667,8 L7.99966667,7.99966667 L8,2.66666667 L9.33333333,2.66666667 Z" id="Rectangle-47" transform="translate(8.666667, 8.666667) rotate(45.000000) translate(-8.666667, -8.666667) "></path>
                    </g>
                </g>
            </g>
        </g>
    </g>
</svg>