<?xml version="1.0" encoding="UTF-8"?>
<svg width="72px" height="72px" viewBox="0 0 72 72" version="1.1" xmlns="http://www.w3.org/2000/svg" xmlns:xlink="http://www.w3.org/1999/xlink">
    <title>画板@2x</title>
    <g id="画板" stroke="none" stroke-width="1" fill="none" fill-rule="evenodd" fill-opacity="0.9">
        <g id="编组-8" fill="#000000">
            <path d="M62.7683341,12.5886353 C64.1588364,12.5886353 65.2860612,13.7158601 65.2860612,15.1063623 L65.2860612,57.0684798 C65.2860612,58.4589821 64.1588364,59.5862069 62.7683341,59.5862069 L9.0568237,59.5862069 C7.66632145,59.5862069 6.53909665,58.4589821 6.53909665,57.0684798 L6.53909665,15.1063623 C6.53909665,13.7158601 7.66632145,12.5886353 9.0568237,12.5886353 L62.7683341,12.5886353 Z M43.9902865,26.9082079 L21.9601748,26.9082079 L21.9601748,32.7829043 L43.9902865,32.7829043 L43.9902865,26.9082079 Z M16.8271588,26.9082079 L10.945119,26.9082079 L10.945119,32.7829043 L16.8271588,32.7829043 L16.8271588,26.9082079 Z M61.6143759,16.9946576 L10.945119,16.9946576 L10.945119,22.8693541 L61.6143759,22.8693541 L61.6143759,16.9946576 Z" id="Combined-Shape" transform="translate(35.912579, 36.087421) scale(1, -1) translate(-35.912579, -36.087421) "></path>
        </g>
    </g>
</svg>