<?xml version="1.0" encoding="UTF-8"?>
<svg width="17px" height="20px" viewBox="0 0 17 20" version="1.1" xmlns="http://www.w3.org/2000/svg" xmlns:xlink="http://www.w3.org/1999/xlink">
    <title>Icons/Outlined/music</title>
    <g id="配乐-&amp;-配音" stroke="none" stroke-width="1" fill="none" fill-rule="evenodd" fill-opacity="0.9">
        <g id="音乐编辑" transform="translate(-43.000000, -731.000000)" fill="#000000">
            <g id="Group-2" transform="translate(24.000000, 710.000000)">
                <g id="3.Icons/Filled/music" transform="translate(16.000000, 18.545455)">
                    <g id="common_icons_music">
                        <path d="M19.5,16.5392879 C19.5,17.4756754 18.8674685,18.3887152 18.0167025,18.7820848 C17.8585484,18.8552106 16.8594624,19.0765941 16.7290072,19.1026128 C15.4755213,19.352615 14.5124101,18.2881785 14.4593703,17.2118005 C14.4063304,16.1354225 15.1183446,15.2378809 15.9444624,15.0731153 L15.9444624,15.0731153 L17.23615,14.7538472 C17.6848085,14.6429517 18,14.2403684 18,13.7782081 L18,13.7782081 L18,4.30897387 L8,6.50097387 L8,19.2012686 C8,20.0791318 7.44884982,20.9364746 6.68498095,21.3643399 L6.5294712,21.4440654 C6.37267856,21.5171912 5.382193,21.7385747 5.25286076,21.7645934 C4.01016532,22.0145956 3.05534487,20.9501591 3.00276162,19.8737811 C2.95017837,18.7974031 3.65606327,17.8998615 4.47506962,17.7350959 L4.47506962,17.7350959 L5.73958069,17.4178208 C6.18656759,17.3056685 6.5,16.9038781 6.5,16.443036 L6.5,16.443036 L6.5,5.96041523 C6.5,5.49056505 6.8270984,5.08408046 7.2860712,4.98356598 L18.8930356,2.44165489 C19.1627851,2.38258008 19.4293498,2.55336564 19.4884246,2.82311512 C19.4961191,2.8582498 19.5,2.89411216 19.5,2.93007952 Z" id="图标颜色"></path>
                    </g>
                </g>
            </g>
        </g>
    </g>
</svg>