<?xml version="1.0" encoding="UTF-8"?>
<svg width="72px" height="72px" viewBox="0 0 72 72" version="1.1" xmlns="http://www.w3.org/2000/svg" xmlns:xlink="http://www.w3.org/1999/xlink">
    <!-- Generator: Sketch 52.2 (67145) - http://www.bohemiancoding.com/sketch -->
    <title>icons_filled_sticker</title>
    <desc>Created with Sketch.</desc>
    <g id="icons_filled_sticker" stroke="none" stroke-width="1" fill="none" fill-rule="evenodd">
        <g id="icon23" fill="#000000">
            <g id="Group-19" transform="translate(6.000000, 6.000000)">
                <path d="M30,60 C13.4314575,60 0,46.5685425 0,30 C0,13.4314575 13.4314575,0 30,0 C46.5685425,0 60,13.4314575 60,30 C60,46.5685425 46.5685425,60 30,60 Z M30,48 C38.6070638,48 45.6748923,41.40975 46.4327355,33 L13.5672645,33 C14.3251077,41.40975 21.3929362,48 30,48 Z M19.5,25.5 C21.9852814,25.5 24,23.4852814 24,21 C24,18.5147186 21.9852814,16.5 19.5,16.5 C17.0147186,16.5 15,18.5147186 15,21 C15,23.4852814 17.0147186,25.5 19.5,25.5 Z M40.5,25.5 C42.9852814,25.5 45,23.4852814 45,21 C45,18.5147186 42.9852814,16.5 40.5,16.5 C38.0147186,16.5 36,18.5147186 36,21 C36,23.4852814 38.0147186,25.5 40.5,25.5 Z" id="Combined-Shape"></path>
            </g>
        </g>
    </g>
</svg>