<?xml version="1.0" encoding="UTF-8"?>
<svg width="30px" height="28px" viewBox="0 0 30 28" version="1.1" xmlns="http://www.w3.org/2000/svg" xmlns:xlink="http://www.w3.org/1999/xlink">
    <title>剪刀</title>
    <defs>
        <filter id="filter-1">
            <feColorMatrix in="SourceGraphic" type="matrix" values="0 0 0 0 1.000000 0 0 0 0 1.000000 0 0 0 0 1.000000 0 0 0 1.000000 0"></feColorMatrix>
        </filter>
    </defs>
    <g id="分段裁剪" stroke="none" stroke-width="1" fill="none" fill-rule="evenodd" fill-opacity="0.9">
        <g id="多段编辑主页" transform="translate(-160.000000, -822.000000)">
            <g id="编组-5" transform="translate(24.000000, 820.000000)">
                <g id="编组-3">
                    <g filter="url(#filter-1)" id="裁剪">
                        <g transform="translate(136.800000, 0.000000)">
                            <g id="编组-14" transform="translate(3.500000, 3.500000)" fill="#000000">
                                <path d="M4.73529412,11.2205882 C7.35052484,11.2205882 9.47058824,13.3406516 9.47058824,15.9558824 C9.47058824,18.5711131 7.35052484,20.6911765 4.73529412,20.6911765 C2.12006339,20.6911765 0,18.5711131 0,15.9558824 C0,13.3406516 2.12006339,11.2205882 4.73529412,11.2205882 Z M16.2647059,11.2205882 C18.8799366,11.2205882 21,13.3406516 21,15.9558824 C21,18.5711131 18.8799366,20.6911765 16.2647059,20.6911765 C13.6494752,20.6911765 11.5294118,18.5711131 11.5294118,15.9558824 C11.5294118,13.3406516 13.6494752,11.2205882 16.2647059,11.2205882 Z M4.73529412,13.4852941 C3.37082591,13.4852941 2.26470588,14.5914141 2.26470588,15.9558824 C2.26470588,17.3203506 3.37082591,18.4264706 4.73529412,18.4264706 C6.09976232,18.4264706 7.20588235,17.3203506 7.20588235,15.9558824 C7.20588235,14.5914141 6.09976232,13.4852941 4.73529412,13.4852941 Z M16.2647059,13.4852941 C14.9002377,13.4852941 13.7941176,14.5914141 13.7941176,15.9558824 C13.7941176,17.3203506 14.9002377,18.4264706 16.2647059,18.4264706 C17.6291741,18.4264706 18.7352941,17.3203506 18.7352941,15.9558824 C18.7352941,14.5914141 17.6291741,13.4852941 16.2647059,13.4852941 Z M18.0702778,0.0533687008 L18.2284107,0.22212383 C19.339509,1.48820639 19.3826584,3.36450723 18.357859,4.67798538 L18.2114941,4.8534973 L18.0702778,5.00311617 L10.4996035,12.572846 L2.92987374,5.00311619 L2.78865737,4.8534973 C1.61577694,3.53634081 1.61013809,1.54575559 2.77174083,0.22212383 L2.92987374,0.0533687008 L10.4995808,7.6238687 L18.0702778,0.0533687008 Z" id="形状结合"></path>
                            </g>
                        </g>
                    </g>
                </g>
            </g>
        </g>
    </g>
</svg>