<?xml version="1.0" encoding="UTF-8"?>
<svg width="72px" height="72px" viewBox="0 0 72 72" version="1.1" xmlns="http://www.w3.org/2000/svg" xmlns:xlink="http://www.w3.org/1999/xlink">
    <!-- Generator: Sketch 52.2 (67145) - http://www.bohemiancoding.com/sketch -->
    <title>icons_filled_talk</title>
    <desc>Created with Sketch.</desc>
    <g id="icons_filled_talk" stroke="none" stroke-width="1" fill="none" fill-rule="evenodd">
        <path d="M41.9380939,43.7033756 L36,45.6827402 L34.2565549,56.1434107 C33.7117846,59.4120326 30.6204194,61.6201506 27.3517975,61.0753803 C26.878268,60.9964587 26.4159215,60.8609923 25.9746756,60.6718869 L13.8182421,55.4619869 C12.7151906,54.9892505 12,53.9046361 12,52.7045518 L12,17.5368422 C12,16.400526 12.6420071,15.3617367 13.6583592,14.8535606 L24.2505819,9.55744932 C27.2144528,8.07551383 30.8184911,9.27685991 32.3004266,12.2407309 C32.3620198,12.3639173 32.4193532,12.4891879 32.472325,12.6163202 L43.7586414,39.7034796 C44.395893,41.2328835 43.6726607,42.9893049 42.1432568,43.6265565 C42.0758272,43.6546521 42.007394,43.6802756 41.9380939,43.7033756 Z M53.0007143,53.0007143 C56.7202713,49.2811573 58.8,44.2879386 58.8,39 C58.8,33.7120614 56.7202713,28.7188427 53.0007143,24.9992857 L52.5764502,24.5750217 L55.9705627,21.1809091 L56.3948268,21.6051732 C60.9780586,26.188405 63.6,32.3873707 63.6,39 C63.6,45.6126293 60.9780586,51.811595 56.3948268,56.3948268 L55.9705627,56.8190909 L52.5764502,53.4249783 L53.0007143,53.0007143 Z M47.0610173,47.0610173 C49.2037343,44.9183003 50.4,42.0461783 50.4,39 C50.4,35.9538217 49.2037343,33.0816997 47.0610173,30.9389827 L46.6367532,30.5147186 L50.0308658,27.1206061 L50.4551299,27.5448701 C53.4732227,30.562963 55.2,34.645523 55.2,39 C55.2,43.354477 53.4732227,47.437037 50.4551299,50.4551299 L50.0308658,50.8793939 L46.6367532,47.4852814 L47.0610173,47.0610173 Z" id="Combined-Shape" fill="#000000"></path>
    </g>
</svg>