<?xml version="1.0" encoding="UTF-8"?>
<svg width="26px" height="32px" viewBox="0 0 26 32" version="1.1" xmlns="http://www.w3.org/2000/svg" xmlns:xlink="http://www.w3.org/1999/xlink">
    <title>Icons/Outlined/music</title>
    <g id="配乐-&amp;-配音" stroke="none" stroke-width="1" fill="none" fill-rule="evenodd" opacity="0.9">
        <g id="录音面板" transform="translate(-173.000000, -727.000000)" fill="#FFFFFF">
            <g id="Group-5-Copy-2" transform="translate(156.000000, 719.000000)">
                <g id="3.Icons/Filled/mike" transform="translate(16.000000, 8.000000)">
                    <g id="Group">
                        <path d="M7.58333333,11.6666667 L7.58333333,14 C7.58333333,17.5438271 10.4561729,20.4166667 14,20.4166667 C17.5438271,20.4166667 20.4166667,17.5438271 20.4166667,14 L20.4166667,11.6666667 L22.1666667,11.6666667 L22.1666667,14 C22.1666667,18.2145664 18.9741236,21.6834744 14.8754708,22.1202909 L14.875,25.6666667 L13.125,25.6666667 L13.1245292,22.1202909 C9.02587636,21.6834744 5.83333333,18.2145664 5.83333333,14 L5.83333333,11.6666667 L7.58333333,11.6666667 Z M14,2.33333333 C16.5773288,2.33333333 18.6666667,4.42267117 18.6666667,7 L18.6666667,7 L18.6666667,14 C18.6666667,16.5773288 16.5773288,18.6666667 14,18.6666667 C11.4226712,18.6666667 9.33333333,16.5773288 9.33333333,14 L9.33333333,14 L9.33333333,7 C9.33333333,4.42267117 11.4226712,2.33333333 14,2.33333333 Z" id="图标颜色"></path>
                    </g>
                </g>
            </g>
        </g>
    </g>
</svg>