<?xml version="1.0" encoding="UTF-8"?>
<svg width="20px" height="28px" viewBox="0 0 20 28" version="1.1" xmlns="http://www.w3.org/2000/svg" xmlns:xlink="http://www.w3.org/1999/xlink">
    <title>3.Icons/Filled/mike</title>
    <g id="配乐-&amp;-配音" stroke="none" stroke-width="1" fill="none" fill-rule="evenodd">
        <g id="剪刀-裁剪全部视频长度" transform="translate(-197.000000, -728.000000)" fill="#FA9D3B">
            <g id="编组-5" transform="translate(175.000000, 710.000000)">
                <g id="3.Icons/Filled/mike" transform="translate(16.000000, 16.000000)">
                    <g id="Group">
                        <path d="M8.66666667,13.3333333 L8.66666667,16 C8.66666667,20.0500882 11.9499118,23.3333333 16,23.3333333 C20.0500882,23.3333333 23.3333333,20.0500882 23.3333333,16 L23.3333333,13.3333333 L25.3333333,13.3333333 L25.3333333,16 C25.3333333,20.8165631 21.6848403,24.780975 17.0007838,25.2803063 L17,29.3333333 L15,29.3333333 L14.9999516,25.2803846 C10.3155415,24.7813899 6.66666667,20.8168152 6.66666667,16 L6.66666667,13.3333333 L8.66666667,13.3333333 Z M16,2.66666667 C18.9455187,2.66666667 21.3333333,5.05448133 21.3333333,8 L21.3333333,8 L21.3333333,16 C21.3333333,18.9455187 18.9455187,21.3333333 16,21.3333333 C13.0544813,21.3333333 10.6666667,18.9455187 10.6666667,16 L10.6666667,16 L10.6666667,8 C10.6666667,5.05448133 13.0544813,2.66666667 16,2.66666667 Z" id="图标颜色"></path>
                    </g>
                </g>
            </g>
        </g>
    </g>
</svg>