<?xml version="1.0" encoding="UTF-8"?>
<svg width="15px" height="15px" viewBox="0 0 15 15" version="1.1" xmlns="http://www.w3.org/2000/svg" xmlns:xlink="http://www.w3.org/1999/xlink">
    <title>Icons/Outlined/music</title>
    <g id="配乐-&amp;-配音" stroke="none" stroke-width="1" fill="none" fill-rule="evenodd" opacity="0.9">
        <g id="音乐编辑" transform="translate(-33.000000, -671.000000)" fill="#FFFFFF">
            <g id="Group-5-Copy-2" transform="translate(24.000000, 662.000000)">
                <g id="3.Icons/Filled/search" transform="translate(6.000000, 6.000000)">
                    <g id="common_icons_search">
                        <path d="M9.16666667,3.33333333 C12.3883333,3.33333333 15,5.945 15,9.16666667 C15,10.4695103 14.5728886,11.6725946 13.8510473,12.6435384 L17.3885049,16.1802767 L16.2099936,17.358788 L12.6765486,13.8263251 C11.6999246,14.5631264 10.4843153,15 9.16666667,15 C5.945,15 3.33333333,12.3883333 3.33333333,9.16666667 C3.33333333,5.945 5.945,3.33333333 9.16666667,3.33333333 Z M9.16666667,5 C6.86547619,5 5,6.86547619 5,9.16666667 C5,11.4678571 6.86547619,13.3333333 9.16666667,13.3333333 C11.4678571,13.3333333 13.3333333,11.4678571 13.3333333,9.16666667 C13.3333333,6.86547619 11.4678571,5 9.16666667,5 Z" id="图标颜色"></path>
                    </g>
                </g>
            </g>
        </g>
    </g>
</svg>