<?xml version="1.0" encoding="UTF-8"?>
<svg width="19px" height="21px" viewBox="0 0 19 21" version="1.1" xmlns="http://www.w3.org/2000/svg" xmlns:xlink="http://www.w3.org/1999/xlink">
    <title>特效</title>
    <defs>
        <filter id="filter-1">
            <feColorMatrix in="SourceGraphic" type="matrix" values="0 0 0 0 1.000000 0 0 0 0 1.000000 0 0 0 0 1.000000 0 0 0 1.000000 0"></feColorMatrix>
        </filter>
    </defs>
    <g id="特效" stroke="none" stroke-width="1" fill="none" fill-rule="evenodd">
        <g id="多段编辑主页" transform="translate(-228.000000, -823.000000)" fill="#FFFFFF">
            <g id="编组-3" transform="translate(16.000000, 820.000000)">
                <g filter="url(#filter-1)" id="特效">
                    <g transform="translate(208.000000, 0.000000)">
                        <rect id="矩形" fill="none" x="0" y="0" width="26" height="28"></rect>
                        <path d="M15.8600087,3.8891932 C15.9592361,4.04922787 16.0067086,4.24002621 15.995077,4.43205042 L15.7158993,9.04094147 L19.0831311,11.9014629 C19.4354416,12.2007567 19.4957505,12.7509559 19.2178347,13.1303673 C19.1071673,13.2814508 18.9533385,13.3890328 18.7801629,13.4364583 L15.5583333,14.318 L22.2217445,22.5732802 C22.3862645,22.7770972 22.3656056,23.0733362 22.1743885,23.2523451 L21.5982189,23.7917291 C21.3966276,23.9804498 21.080217,23.9700162 20.8914963,23.7684248 C20.8831437,23.7595026 20.8751211,23.7502771 20.8674446,23.740767 L14.2793333,15.578 L13.1380074,18.9074641 C12.9825638,19.3607926 12.5153062,19.5925827 12.0943583,19.4251819 C11.9267347,19.358522 11.7841907,19.234213 11.688794,19.0714993 L9.39911803,15.1661088 L5.11369603,14.9833544 C4.66531609,14.964233 4.3162261,14.557288 4.33398172,14.0744173 C4.34105209,13.8821356 4.40678386,13.6977264 4.52100097,13.5497384 L7.26239594,9.99778655 L6.09952248,5.55212009 C5.97785206,5.08697391 6.2293602,4.60367788 6.66128165,4.47264819 C6.83327504,4.42047148 7.01644344,4.43080935 7.18243024,4.50206137 L11.1663815,6.21222494 L14.7331081,3.64740636 C15.1062916,3.37905164 15.6108222,3.4873033 15.8600087,3.8891932 Z" id="形状结合" fill="#EDEDED"></path>
                    </g>
                </g>
            </g>
        </g>
    </g>
</svg>