<?xml version="1.0" encoding="UTF-8"?>
<svg width="22px" height="24px" viewBox="0 0 22 24" version="1.1" xmlns="http://www.w3.org/2000/svg" xmlns:xlink="http://www.w3.org/1999/xlink">
    <title>Icons/Filled/music</title>
    <defs>
        <filter id="filter-1">
            <feColorMatrix in="SourceGraphic" type="matrix" values="0 0 0 0 1.000000 0 0 0 0 1.000000 0 0 0 0 1.000000 0 0 0 1.000000 0"></feColorMatrix>
        </filter>
    </defs>
    <g id="样式-20200907" stroke="none" stroke-width="1" fill="none" fill-rule="evenodd" opacity="0.900000036">
        <g id="多段编辑主页备份-5" transform="translate(-299.000000, -821.000000)" fill="#FFFFFF">
            <g id="编组-5" transform="translate(24.000000, 820.000000)">
                <g id="编组-3">
                    <g filter="url(#filter-1)" id="Icons/Filled/Sound">
                        <g transform="translate(272.000000, 0.000000)">
                            <g id="Icons/Outlined/Sound" fill="none" opacity="0">
                                <path d="M10.9666667,4.66666667 C11.6109989,4.66666667 12.1333333,5.18900113 12.1333333,5.83333333 L12.1333333,22.1666667 C12.1333333,22.8109989 11.6109989,23.3333333 10.9666667,23.3333333 C10.3223345,23.3333333 9.8,22.8109989 9.8,22.1666667 L9.8,5.83333333 C9.8,5.18900113 10.3223345,4.66666667 10.9666667,4.66666667 Z M23.1,8.16666667 C23.7443322,8.16666667 24.2666667,8.68900113 24.2666667,9.33333333 L24.2666667,18.6666667 C24.2666667,19.3109989 23.7443322,19.8333333 23.1,19.8333333 C22.4556678,19.8333333 21.9333333,19.3109989 21.9333333,18.6666667 L21.9333333,9.33333333 C21.9333333,8.68900113 22.4556678,8.16666667 23.1,8.16666667 Z M4.9,8.16666667 C5.54433221,8.16666667 6.06666667,8.68900113 6.06666667,9.33333333 L6.06666667,18.6666667 C6.06666667,19.3109989 5.54433221,19.8333333 4.9,19.8333333 C4.25566779,19.8333333 3.73333333,19.3109989 3.73333333,18.6666667 L3.73333333,9.33333333 C3.73333333,8.68900113 4.25566779,8.16666667 4.9,8.16666667 Z M17.0333333,10.5 C17.6776655,10.5 18.2,11.0223345 18.2,11.6666667 L18.2,16.3333333 C18.2,16.9776655 17.6776655,17.5 17.0333333,17.5 C16.3890011,17.5 15.8666667,16.9776655 15.8666667,16.3333333 L15.8666667,11.6666667 C15.8666667,11.0223345 16.3890011,10.5 17.0333333,10.5 Z" id="形状结合" fill="#000000"></path>
                            </g>
                            <g id="声音-icon备份" fill="none">
                                <g id="声音-icon" transform="translate(3.500000, 1.166667)" fill="#000000">
                                    <path d="M9.33368707,2.39737781 L9.33332373,4.74937171 C5.37565191,5.31547711 2.33333333,8.71911943 2.33333333,12.8333333 C2.33333333,17.3436588 5.98967454,21 10.5,21 C15.0103255,21 18.6666667,17.3436588 18.6666667,12.8333333 C18.6666667,10.9540311 18.0318852,9.22298994 16.9650391,7.84292677 L16.7969279,7.63268053 L19.2309144,6.99858837 C20.3483156,8.66731596 21,10.6742201 21,12.8333333 C21,18.6323232 16.2989899,23.3333333 10.5,23.3333333 C4.70101013,23.3333333 -8.28966525e-15,18.6323232 -8.28966525e-15,12.8333333 C-8.28966525e-15,7.42856602 4.08357455,2.97756865 9.33368707,2.39737781 Z M19.2460925,0.59634636 L19.249019,0.611190074 L19.249019,0.611190074 L19.25,3.88486852 C19.25,3.93777035 19.2144047,3.98405096 19.1632747,3.99762768 L14,5.3687589 L14,12.8333333 C14,14.6972944 12.5429267,16.2209377 10.7056516,16.3273919 L10.5,16.3333333 C8.56700338,16.3333333 7,14.76633 7,12.8333333 C7,10.9003367 8.56700338,9.33333333 10.5,9.33333333 C11.13785,9.33333333 11.7358482,9.50395919 12.2508418,9.8020581 L12.25,3.23064014 C12.25,2.70162188 12.6059535,2.23881578 13.1172534,2.10304855 L19.103392,0.513528529 C19.1656672,0.49699239 19.2295564,0.534071196 19.2460925,0.59634636 Z" id="形状"></path>
                                </g>
                            </g>
                        </g>
                    </g>
                </g>
            </g>
        </g>
    </g>
</svg>