<?xml version="1.0" encoding="UTF-8"?>
<svg width="72px" height="72px" viewBox="0 0 72 72" version="1.1" xmlns="http://www.w3.org/2000/svg" xmlns:xlink="http://www.w3.org/1999/xlink">
    <title>Filled_transform</title>
    <g id="transform" stroke="none" stroke-width="1" fill="none" fill-rule="evenodd">
        <g id="编组">
            <rect id="矩形" x="0" y="0" width="72" height="72"></rect>
            <path d="M57.5788788,13.5 C58.7386768,13.5 59.6788788,14.440202 59.6788788,15.6 C59.6788788,16.1906891 59.4301073,16.7540653 58.9935632,17.1519884 L38.3151072,36 L58.9935632,54.8480116 C59.8507027,55.6293202 59.9121758,56.9575449 59.1308672,57.8146844 C58.7329441,58.2512285 58.1695678,58.5 57.5788788,58.5 L14.4211212,58.5 C13.2613232,58.5 12.3211212,57.559798 12.3211212,56.4 C12.3211212,55.8093109 12.5698927,55.2459347 13.0064368,54.8480116 L33.6841072,36 L13.0064368,17.1519884 C12.1492973,16.3706798 12.0878242,15.0424551 12.8691328,14.1853156 C13.2670559,13.7487715 13.8304322,13.5 14.4211212,13.5 L57.5788788,13.5 Z" id="形状结合" fill-opacity="0.9" fill="#000000" transform="translate(36.000000, 36.000000) rotate(-270.000000) translate(-36.000000, -36.000000) "></path>
        </g>
    </g>
</svg>