<?xml version="1.0" encoding="UTF-8"?>
<svg width="72px" height="72px" viewBox="0 0 72 72" version="1.1" xmlns="http://www.w3.org/2000/svg" xmlns:xlink="http://www.w3.org/1999/xlink">
    <!-- Generator: Sketch 63.1 (92452) - https://sketch.com -->
    <title>icons_filled_cutie备份</title>
    <desc>Created with Sketch.</desc>
    <g id="icons_filled_cutie备份" stroke="none" stroke-width="1" fill="none" fill-rule="evenodd">
        <g id="编组备份">
            <rect id="矩形" x="0" y="0" width="72" height="72"></rect>
            <path d="M17.2948028,43.6488619 C17.3506823,43.6607401 17.3949266,43.7033914 17.4088449,43.758798 C18.1629644,46.7608324 19.4338345,49.1556599 21.2214551,50.9432805 C22.9068552,52.6286806 25.0896846,53.8124186 27.7699434,54.4944947 L28.2212504,54.6035667 C28.3017995,54.6220095 28.3521466,54.7022583 28.3337038,54.7828074 C28.3208785,54.8388219 28.2771062,54.882542 28.2210764,54.8953005 C25.3394341,55.5514746 22.9922221,56.7859525 21.1794404,58.5987342 C19.4599099,60.3182647 18.2399397,62.5394331 17.5195298,65.2622396 L17.4040453,65.7206755 C17.3848147,65.8010378 17.3040787,65.8505948 17.2237165,65.8313642 C17.167808,65.8179853 17.1245092,65.7737567 17.112321,65.7175767 C16.4977963,62.8849979 15.2783433,60.5565179 13.4539622,58.7321367 C11.7152471,56.9934217 9.47046098,55.7559564 6.71960387,55.019741 L6.25638772,54.9019029 C6.17593637,54.8823991 6.12652861,54.8013695 6.14603239,54.7209181 C6.15947887,54.6654526 6.20325711,54.6224362 6.25895009,54.6099654 C9.27227752,53.9352181 11.6788761,52.6979095 13.4787459,50.8980398 C15.1855672,49.1912185 16.3655047,46.9597643 17.0185584,44.2036771 L17.1172815,43.7641431 C17.1344686,43.6832879 17.2139476,43.6316748 17.2948028,43.6488619 Z M57.6200024,51.2262877 L59.4138429,53.3396968 C60.9483001,55.1475139 60.8387733,57.8302742 59.162056,59.5069915 C57.4795279,61.1895196 54.7935191,61.3168502 52.9593729,59.8010304 L50.8163495,58.0299406 L57.6200024,51.2262877 Z M32.556186,23.4515892 L55.2287618,48.8251096 L48.4279426,55.6259288 L23.4648131,32.5429621 L32.556186,23.4515892 Z M59.6770926,21.3740516 C59.7236588,21.38395 59.7605291,21.4194928 59.7721277,21.465665 C60.4005606,23.9673603 61.459619,25.9630499 62.9493028,27.4527337 C64.4316744,28.9351053 66.3758108,29.951783 68.7817121,30.5027666 L68.7817811,30.5024653 C68.8490883,30.5178796 68.8911559,30.5849386 68.8757416,30.6522459 C68.8650234,30.6990479 68.82845,30.7355775 68.7816352,30.7462398 C66.3805799,31.2930912 64.4247983,32.3217708 62.9142906,33.8322785 C61.4015814,35.3449877 60.3528106,37.3235648 59.7679781,39.7680098 L59.7676062,39.7679209 C59.7516283,39.8347039 59.6845374,39.8758898 59.6177543,39.8599119 C59.5712888,39.8487951 59.5353032,39.8120367 59.5251759,39.7653456 C59.0131209,37.4045476 57.9968596,35.4639148 56.4763921,33.9434473 C55.0369329,32.5039882 53.1812427,31.4767949 50.9093214,30.8618673 L50.4784134,30.7515857 C50.4113706,30.7353326 50.3701974,30.6678079 50.3864506,30.6007651 C50.397656,30.5545438 50.4341379,30.5186968 50.4805487,30.5083044 C52.9916549,29.946015 54.9971537,28.9149246 56.4970452,27.4150331 C57.9061855,26.0058927 58.8843743,24.1676418 59.4316115,21.9002803 L59.5291582,21.4701192 C59.5434808,21.4027399 59.6097133,21.359729 59.6770926,21.3740516 Z M20.9868708,8.25894874 L29.9344808,20.8431079 L20.8431079,29.9344808 L8.25894874,20.9868708 C9.07213953,17.5637686 10.540982,14.7899704 12.6654762,12.6654762 C14.7899704,10.540982 17.5637686,9.07213953 20.9868708,8.25894874 Z M44.5446254,5.34924126 C44.5818784,5.35716002 44.6113747,5.38559427 44.6206535,5.42253197 C45.1233999,7.42388825 45.9706466,9.02043991 47.1623936,10.212187 C48.3482909,11.3980843 49.9036001,12.2114264 51.828321,12.6522133 L51.8283762,12.6519723 C51.882222,12.6643037 51.9158761,12.7179509 51.9035447,12.7717967 C51.8949701,12.8092383 51.8657114,12.838462 51.8282596,12.8469918 C49.9074153,13.2844729 48.34279,14.1074166 47.1343838,15.3158228 C46.0048943,16.4453123 45.1987183,17.89946 44.7158557,19.6782659 L44.6170363,20.0643367 C44.6042541,20.1177632 44.5505813,20.1507118 44.4971548,20.1379295 C44.4599824,20.1290361 44.4311939,20.0996294 44.4230921,20.0622765 C44.0134481,18.1736381 43.2004391,16.6211319 41.984065,15.4047578 C40.8420941,14.2627869 39.372665,13.4451547 37.5757776,12.9518611 L37.1856821,12.8512686 C37.1320478,12.8382661 37.0991093,12.7842463 37.1121119,12.7306121 C37.1210762,12.6936351 37.1502617,12.6649574 37.1873903,12.6566436 C39.1962753,12.206812 40.8006743,11.3819397 42.0005875,10.1820265 C43.1185056,9.06410846 43.8973844,7.60859961 44.337224,5.81549993 L44.4262779,5.42609536 C44.437736,5.37219192 44.490722,5.33778317 44.5446254,5.34924126 Z" id="形状结合" fill-opacity="0.9" fill="#000000"></path>
        </g>
    </g>
</svg>