<?xml version="1.0" encoding="UTF-8"?>
<svg width="18px" height="20px" viewBox="0 0 18 20" version="1.1" xmlns="http://www.w3.org/2000/svg" xmlns:xlink="http://www.w3.org/1999/xlink">
    <title>0.图标/面型/icons_filled_delete</title>
    <g id="特效" stroke="none" stroke-width="1" fill="none" fill-rule="evenodd">
        <g id="生成完整视频" transform="translate(-27.000000, -828.000000)" fill="#FFFFFF">
            <g id="编组" transform="translate(24.000000, 826.000000)">
                <g id="0.图标/面型/icons_filled_delete">
                    <g id="icon39">
                        <g id="Group-3" transform="translate(3.000000, 2.000000)">
                            <path d="M17,3 C17.2761424,3 17.5,3.22385763 17.5,3.5 L17.5,4.5 L15.412,4.49903411 L14.6107386,18.117444 C14.5485547,19.1745693 13.6731425,20 12.6141898,20 L5.38581016,20 C4.32685754,20 3.45144525,19.1745693 3.38926141,18.117444 L2.588,4.49903411 L0.5,4.5 L0.5,3.5 C0.5,3.22385763 0.723857625,3 1,3 L17,3 Z M7.60000038,6.99998133 L6,6.99998133 L6.5,15.9999943 L8,15.9999943 L7.60000038,6.99998133 Z M12,6.99998133 L10.5,6.99998133 L10,15.9999943 L11.5,15.9999943 L12,6.99998133 Z M11,0.500034106 C11.2761424,0.500034106 11.5,0.723891731 11.5,1.00003411 L11.5,2 L6.5,2 L6.5,1.00003411 C6.5,0.723891731 6.72385763,0.500034106 7,0.500034106 L11,0.500034106 Z" id="Combined-Shape"></path>
                        </g>
                    </g>
                </g>
            </g>
        </g>
    </g>
</svg>