<?xml version="1.0" encoding="UTF-8"?>
<svg width="72px" height="72px" viewBox="0 0 72 72" version="1.1" xmlns="http://www.w3.org/2000/svg" xmlns:xlink="http://www.w3.org/1999/xlink">
    <!-- Generator: Sketch 63.1 (92452) - https://sketch.com -->
    <title>icons_filled_filters备份</title>
    <desc>Created with Sketch.</desc>
    <g id="icons_filled_filters备份" stroke="none" stroke-width="1" fill="none" fill-rule="evenodd">
        <g id="编组备份-2" fill="#000000" fill-rule="nonzero">
            <path d="M36,9 C45.1126984,9 52.5,16.3873016 52.5,25.5 C52.5,26.9695797 52.3069547,28.4127839 51.9333946,29.8000368 C53.304061,30.165613 54.652053,30.7162089 55.941343,31.4605808 C63.8331712,36.01693 66.5371113,46.1081717 61.9807621,54 C57.4244129,61.8918283 47.3331712,64.5957683 39.441343,60.0394192 C38.1688249,59.3047305 37.0154086,58.4159805 36.0005266,57.3985253 C34.9978987,58.4036277 33.8474572,59.29533 32.558657,60.0394192 C24.6668288,64.5957683 14.5755871,61.8918283 10.0192379,54 C5.4628887,46.1081717 8.16682876,36.01693 16.058657,31.4605808 C17.3321557,30.7253261 18.6790884,30.1709078 20.0672127,29.8009088 C19.6970546,28.4306224 19.5,26.9883235 19.5,25.5 C19.5,16.3873016 26.8873016,9 36,9 Z M22.7697613,35.3612332 L22.7069654,35.3690734 C21.4380804,35.5644762 20.2044025,35.9952368 19.058657,36.6567333 C14.0365845,39.5562282 12.3158954,45.9779275 15.2153903,51 C18.1148852,56.0220725 24.5365845,57.7427617 29.558657,54.8432667 C34.1280555,52.2051233 35.9644009,46.6511202 34.0743319,41.8885325 C29.4534742,41.3513483 25.4160992,38.9059175 22.7697613,35.3612332 Z M52.941343,36.6567333 C48.3716613,34.0184263 42.6431538,35.2054168 39.4637853,39.2241586 C41.3094989,43.4935125 41.2104931,48.2124701 39.4641179,52.2764943 C40.2734947,53.3011874 41.2770876,54.1710836 42.441343,54.8432667 C47.4634155,57.7427617 53.8851148,56.0220725 56.7846097,51 C59.6841046,45.9779275 57.9634155,39.5562282 52.941343,36.6567333 Z M36,15 C30.2010101,15 25.5,19.7010101 25.5,25.5 C25.5,30.7764771 29.3920158,35.1439252 34.46184,35.8881368 C37.2366591,32.155038 41.3732266,29.8811669 45.7662774,29.3616731 C46.2482694,28.1489554 46.5,26.8446673 46.5,25.5 C46.5,19.7010101 41.7989899,15 36,15 Z" id="形状结合"></path>
        </g>
    </g>
</svg>