<?xml version="1.0" encoding="UTF-8"?>
<svg width="72px" height="72px" viewBox="0 0 72 72" version="1.1" xmlns="http://www.w3.org/2000/svg" xmlns:xlink="http://www.w3.org/1999/xlink">
    <title>变速1@2x</title>
    <g id="变速1" stroke="none" stroke-width="1" fill="none" fill-rule="evenodd" fill-opacity="0.9">
        <path d="M36,6 C52.5685425,6 66,19.4314575 66,36 C66,52.5685425 52.5685425,66 36,66 C19.4314575,66 6,52.5685425 6,36 C6,19.4314575 19.4314575,6 36,6 Z M36,10.8 C22.0824243,10.8 10.8,22.0824243 10.8,36 C10.8,49.9175757 22.0824243,61.2 36,61.2 C49.9175757,61.2 61.2,49.9175757 61.2,36 C61.2,22.0824243 49.9175757,10.8 36,10.8 Z M47.3918323,23.5158447 C47.4634468,23.661095 47.4733048,23.8291264 47.4191661,23.9817544 L42.4543171,37.982043 C41.6075593,40.7427496 39.0381889,42.75 36,42.75 C32.2720779,42.75 29.25,39.7279221 29.25,36 C29.25,33.3436572 30.7844058,31.0456942 33.0152363,29.9440919 L33.0089562,29.9382377 L46.5883582,23.2430271 C46.885568,23.0964904 47.2452956,23.2186349 47.3918323,23.5158447 Z" id="形状结合" fill="#000000"></path>
    </g>
</svg>