<?xml version="1.0" encoding="UTF-8"?>
<svg width="96px" height="96px" viewBox="0 0 96 96" version="1.1" xmlns="http://www.w3.org/2000/svg" xmlns:xlink="http://www.w3.org/1999/xlink">
    <!-- Generator: Sketch 50.2 (55047) - http://www.bohemiancoding.com/sketch -->
    <title>Icons/Dark/help@3x</title>
    <desc>Created with Sketch.</desc>
    <defs></defs>
    <g id="Icons/Dark/help@3x" stroke="none" stroke-width="1" fill="none" fill-rule="evenodd">
        <g id="common_icons_help" fill="#000000">
            <g id="Group-19" transform="translate(12.000000, 12.000000)">
                <path d="M36,67.68 C53.4963809,67.68 67.68,53.4963809 67.68,36 C67.68,18.5036191 53.4963809,4.32 36,4.32 C18.5036191,4.32 4.32,18.5036191 4.32,36 C4.32,53.4963809 18.5036191,67.68 36,67.68 Z M36,72 C16.117749,72 0,55.882251 0,36 C0,16.117749 16.117749,0 36,0 C55.882251,0 72,16.117749 72,36 C72,55.882251 55.882251,72 36,72 Z" id="Oval-78" fill-rule="nonzero"></path>
                <path d="M25.2,27.7451163 L29.4948837,27.7451163 C29.7711628,24.1534884 32.1823256,21.9181395 35.9748837,21.9181395 C39.7172093,21.9181395 42.1283721,24.2037209 42.1283721,27.3181395 C42.1283721,30.0055814 40.9981395,31.587907 38.0846512,33.3711628 C34.6437209,35.4306977 33.0362791,37.6911628 33.0613953,41.0065116 L33.0613953,43.3172093 L37.4567442,43.3172093 L37.4567442,41.6846512 C37.4567442,39.0474419 38.3609302,37.6409302 41.5506977,35.7572093 C44.7655814,33.8232558 46.8,31.0353488 46.8,27.092093 C46.8,21.9181395 42.48,18 36.1506977,18 C29.0930233,18 25.4762791,22.32 25.2,27.7451163 Z M35.2716279,54.7702326 C36.904186,54.7702326 38.1348837,53.5144186 38.1348837,51.9069767 C38.1348837,50.2744186 36.904186,49.0437209 35.2716279,49.0437209 C33.664186,49.0437209 32.4083721,50.2744186 32.4083721,51.9069767 C32.4083721,53.5144186 33.664186,54.7702326 35.2716279,54.7702326 Z" id="?"></path>
            </g>
        </g>
    </g>
</svg>