<?xml version="1.0" encoding="UTF-8"?>
<svg width="50px" height="12px" viewBox="0 0 50 12" version="1.1" xmlns="http://www.w3.org/2000/svg" xmlns:xlink="http://www.w3.org/1999/xlink">
    <title>Group 3</title>
    <g id="配乐-&amp;-配音" stroke="none" stroke-width="1" fill="none" fill-rule="evenodd" opacity="0.300000012">
        <g id="音乐编辑" transform="translate(-323.000000, -732.000000)" fill="#000000">
            <g id="Group-2" transform="translate(24.000000, 710.000000)">
                <g id="Group-3" transform="translate(299.000000, 22.000000)">
                    <rect id="Path" x="15.1714286" y="1.5" width="1.51428571" height="9" rx="0.75"></rect>
                    <rect id="Path" x="21.2285714" y="1.5" width="1.51428571" height="9" rx="0.75"></rect>
                    <rect id="Path" x="12.1428571" y="3" width="1.51428571" height="6.75" rx="0.75"></rect>
                    <rect id="Path" x="9.11428571" y="4.5" width="1.51428571" height="3" rx="0.75"></rect>
                    <rect id="Path" x="6.08571429" y="4.5" width="1.51428571" height="3" rx="0.75"></rect>
                    <rect id="Path" x="3.05714286" y="4.5" width="1.51428571" height="3" rx="0.75"></rect>
                    <rect id="Path" x="3.05714286" y="4.5" width="1.51428571" height="3" rx="0.75"></rect>
                    <rect id="Path" x="0.0285714286" y="4.5" width="1.51428571" height="3" rx="0.75"></rect>
                    <rect id="Path" x="18.2" y="0" width="1.51428571" height="12" rx="0.75"></rect>
                    <rect id="Path" transform="translate(25.014286, 6.000000) scale(1, -1) translate(-25.014286, -6.000000) " x="24.2571429" y="3" width="1.51428571" height="6" rx="0.75"></rect>
                    <rect id="Path" x="33.3428571" y="4.5" width="1.51428571" height="3" rx="0.75"></rect>
                    <rect id="Path" x="27.2857143" y="1.5" width="1.51428571" height="9" rx="0.75"></rect>
                    <rect id="Path" x="36.3714286" y="4.5" width="1.51428571" height="3" rx="0.75"></rect>
                    <rect id="Path" x="39.4" y="4.5" width="1.51428571" height="3" rx="0.75"></rect>
                    <rect id="Path" x="42.4285714" y="4.5" width="1.51428571" height="3" rx="0.75"></rect>
                    <rect id="Path" x="45.4571429" y="4.5" width="1.51428571" height="3" rx="0.75"></rect>
                    <rect id="Path" x="48.4857143" y="4.5" width="1.51428571" height="3" rx="0.75"></rect>
                    <rect id="Path" x="30.3142857" y="3" width="1.51428571" height="6" rx="0.75"></rect>
                </g>
            </g>
        </g>
    </g>
</svg>