<?xml version="1.0" encoding="UTF-8"?>
<svg width="24px" height="24px" viewBox="0 0 24 24" version="1.1" xmlns="http://www.w3.org/2000/svg" xmlns:xlink="http://www.w3.org/1999/xlink">
    <title>预览半屏</title>
    <g id="预览半屏" stroke="none" stroke-width="1" fill="none" fill-rule="evenodd" fill-opacity="0.9">
        <g id="编组" transform="translate(4.000000, 4.000000)" fill="#000000">
            <g id="Max-icon" transform="translate(0.500000, 0.500000)">
                <path d="M15,10 L15,14.1666667 C15,14.626904 14.626904,15 14.1666667,15 L10,15 L10,13.3333333 L13.3333333,13.3333333 L13.3333333,10 L15,10 Z M1.66666667,9.99847905 L1.66666667,13.3318124 L5,13.3318124 L5,14.9984791 L0.833333333,14.9984791 C0.373096042,14.9984791 0,14.625383 0,14.1651457 L0,9.99847905 L1.66666667,9.99847905 Z M5,0 L5,1.66666667 L1.66666667,1.66666667 L1.66666667,5 L0,5 L0,0.833333333 C0,0.373096042 0.373096042,0 0.833333333,0 L5,0 Z M14.1666667,0 C14.626904,0 15,0.373096042 15,0.833333333 L15,5 L13.3333333,5 L13.3333333,1.66666667 L10,1.66666667 L10,0 L14.1666667,0 Z" id="Combined-Shape"></path>
            </g>
            <g transform="translate(2.500000, 2.000000)" id="Group">
                <path d="M3.74806947,2.42746827 L9.24028725,5.56587843 C9.48004597,5.70288341 9.56334434,6.00831075 9.42633935,6.24806947 C9.3820447,6.32558511 9.31780289,6.38982692 9.24028725,6.43412157 L3.74806947,9.57253173 C3.50831075,9.70953672 3.20288341,9.62623835 3.06587843,9.38647963 C3.02270766,9.31093078 3,9.22542363 3,9.13841016 L3,2.86158984 C3,2.58544746 3.22385763,2.36158984 3.5,2.36158984 C3.58701347,2.36158984 3.67252062,2.3842975 3.74806947,2.42746827 Z" id="矩形"></path>
            </g>
        </g>
    </g>
</svg>