<?xml version="1.0" encoding="UTF-8"?>
<svg width="60px" height="60px" viewBox="0 0 60 60" version="1.1" xmlns="http://www.w3.org/2000/svg" xmlns:xlink="http://www.w3.org/1999/xlink">
    <!-- Generator: Sketch 48.2 (47327) - http://www.bohemiancoding.com/sketch -->
    <title>字体HL</title>
    <desc>Created with Sketch.</desc>
    <defs></defs>
    <g id="Page-2" stroke="none" stroke-width="1" fill="none" fill-rule="evenodd">
        <g id="字体HL">
            <g id="Group-3">
                <rect id="Rectangle-27" stroke="#FFFFFF" stroke-width="3" x="1.5" y="1.5" width="55.5" height="55.5" rx="3"></rect>
                <path d="M31.5,18 L31.5,46.5 C31.5,47.3284271 30.8284271,48 30,48 L27,48 C26.1715729,48 25.5,47.3284271 25.5,46.5 L25.5,18 L13.5,18 C12.6715729,18 12,17.3284271 12,16.5 L12,13.5 C12,12.6715729 12.6715729,12 13.5,12 L45,12 C45.8284271,12 46.5,12.6715729 46.5,13.5 L46.5,16.5 C46.5,17.3284271 45.8284271,18 45,18 L31.5,18 Z" id="Combined-Shape" fill="#FFFFFF"></path>
            </g>
        </g>
    </g>
</svg>