<?xml version="1.0" encoding="UTF-8"?>
<svg width="72px" height="72px" viewBox="0 0 72 72" version="1.1" xmlns="http://www.w3.org/2000/svg" xmlns:xlink="http://www.w3.org/1999/xlink">
    <title>diehua</title>
    <g id="diehua" stroke="none" stroke-width="1" fill="none" fill-rule="evenodd" opacity="0.800000012">
        <path d="M36,16 C47.045695,16 56,24.954305 56,36 C56,47.045695 47.045695,56 36,56 C24.954305,56 16,47.045695 16,36 C16,24.954305 24.954305,16 36,16 Z M23.4801907,26.3060581 C21.4030986,28.9847399 20.1666667,32.3479779 20.1666667,36 C20.1666667,44.7445085 27.2554915,51.8333333 36,51.8333333 C39.6520221,51.8333333 43.0152601,50.5969014 45.6939419,48.5198093 Z M36,20.1666667 C32.3479779,20.1666667 28.9847399,21.4030986 26.3060581,23.4801907 L48.5198093,45.6939419 C50.5969014,43.0152601 51.8333333,39.6520221 51.8333333,36 C51.8333333,27.2554915 44.7445085,20.1666667 36,20.1666667 Z" id="形状结合" fill="#FFFFFF" fill-rule="nonzero"></path>
    </g>
</svg>