<?xml version="1.0" encoding="UTF-8"?>
<svg width="72px" height="72px" viewBox="0 0 72 72" version="1.1" xmlns="http://www.w3.org/2000/svg" xmlns:xlink="http://www.w3.org/1999/xlink">
    <title>youzhuan</title>
    <g id="youzhuan" stroke="none" stroke-width="1" fill="none" fill-rule="evenodd" fill-opacity="0.8">
        <g id="编组-3" transform="translate(12.000000, 18.000000)" fill="#FFFFFF">
            <path d="M35.9687107,3.62529281 C43.9080439,9.60800956 45.4941802,20.8940491 39.5114596,28.8333875 C33.5952137,36.684511 22.4928492,38.3228555 14.5692419,32.5727934 L14.3033698,32.3761712 L17.91426,27.5843581 C23.2071455,31.5728335 30.7311637,30.5153929 34.7196466,25.2224974 C38.7081294,19.9296018 37.6507061,12.4055812 32.3578205,8.41710587 C27.06493,4.42862676 19.5408932,5.48606116 15.5206214,10.8203867 C14.5596994,12.0504226 13.8547342,13.4099651 13.4064177,14.915149 L20.7868932,15.6094108 L9.16956987,26.3409135 L0.291984347,13.6827163 L7.35254221,14.3464985 C7.93011329,11.8439226 8.97622087,9.56109548 10.4862475,7.52814016 L10.7606011,7.16806158 C16.7433197,-0.771274255 28.0293748,-2.35742586 35.9687107,3.62529281 Z" id="形状结合"></path>
        </g>
    </g>
</svg>