<?xml version="1.0" encoding="UTF-8"?>
<svg width="72px" height="72px" viewBox="0 0 72 72" version="1.1" xmlns="http://www.w3.org/2000/svg" xmlns:xlink="http://www.w3.org/1999/xlink">
    <!-- Generator: Sketch 52.2 (67145) - http://www.bohemiancoding.com/sketch -->
    <title>icons_filled_music</title>
    <desc>Created with Sketch.</desc>
    <g id="icons_filled_music" stroke="none" stroke-width="1" fill="none" fill-rule="evenodd">
        <g id="common_icons_music" fill="#000000">
            <path d="M54,12.9265385 L24,19.5034613 L24,54.587288 L24,57.6038057 C24,60.4129682 22.1187407,63.1520874 19.5884136,64.3321961 C19.1180357,64.5515737 16.146579,65.215724 15.7585823,65.2937802 C12.030496,66.0437868 9.1660346,62.8504772 9.00828486,59.6213432 C8.85053512,56.3922092 10.9681898,53.6995845 13.4252089,53.2052878 L17.2187421,52.2534623 C18.5597028,51.9170054 19.5,50.7116344 19.5,49.3291081 L19.5,18.9352357 L19.5,17.8812457 C19.5,16.4716952 20.4812952,15.2522414 21.8582136,14.9506979 L56.6791068,7.32496467 C57.4883552,7.14774025 58.2880495,7.66009693 58.4652739,8.46934535 C58.4883572,8.5747494 58.5,8.68233649 58.5,8.79023855 L58.5,10.4621887 L58.5,46.6013462 L58.5,49.6178638 C58.5,52.4270263 56.6024056,55.1661456 54.0501075,56.3462543 C53.5756453,56.5656319 50.5783872,57.2297822 50.1870215,57.3078384 C46.4265639,58.057845 43.5372303,54.8645354 43.3781108,51.6354014 C43.2189913,48.4062674 45.3550337,45.7136426 47.8333872,45.219346 L51.7084501,44.2615415 C53.0544254,43.928855 54,42.7211053 54,41.3346242 L54,12.9265385 Z" id="Music-Copy"></path>
        </g>
    </g>
</svg>