<?xml version="1.0" encoding="UTF-8"?>
<svg width="24px" height="24px" viewBox="0 0 24 24" version="1.1" xmlns="http://www.w3.org/2000/svg" xmlns:xlink="http://www.w3.org/1999/xlink">
    <title>playbtn_play</title>
    <g id="playbtn_play" stroke="none" stroke-width="1" fill="none" fill-rule="evenodd" fill-opacity="0.9">
        <path d="M12,0 C18.627417,0 24,5.372583 24,12 C24,18.627417 18.627417,24 12,24 C5.372583,24 0,18.627417 0,12 C0,5.372583 5.372583,0 12,0 Z M12,0.72 C5.77022802,0.72 0.72,5.77022802 0.72,12 C0.72,18.229772 5.77022802,23.28 12,23.28 C18.229772,23.28 23.28,18.229772 23.28,12 C23.28,5.77022802 18.229772,0.72 12,0.72 Z M9.6,7.63390781 C9.70441616,7.63390781 9.80702475,7.661157 9.89768336,7.71296192 L16.4883447,11.4790541 C16.7760552,11.6434601 16.8760132,12.0099729 16.7116072,12.2976834 C16.6584536,12.3907021 16.5813635,12.4677923 16.4883447,12.5209459 L9.89768336,16.2870381 C9.6099729,16.4514441 9.2434601,16.351486 9.07905411,16.0637756 C9.02724919,15.9731169 9,15.8705084 9,15.7660922 L9,8.23390781 C9,7.90253696 9.26862915,7.63390781 9.6,7.63390781 Z" id="形状" fill="#000000"></path>
    </g>
</svg>