<?xml version="1.0" encoding="UTF-8"?>
<svg width="72px" height="72px" viewBox="0 0 72 72" version="1.1" xmlns="http://www.w3.org/2000/svg" xmlns:xlink="http://www.w3.org/1999/xlink">
    <!-- Generator: Sketch 52.2 (67145) - http://www.bohemiancoding.com/sketch -->
    <title>icons_outlined_search</title>
    <desc>Created with Sketch.</desc>
    <g id="icons_outlined_search" stroke="none" stroke-width="1" fill="none" fill-rule="evenodd">
        <g id="common_icons_search" fill="#000000">
            <path d="M48.9297935,46.6842091 L61.2727923,59.0272078 L58.7272077,61.5727923 L46.3585526,49.2041372 C42.7284296,52.2002021 38.0744018,54 33,54 C21.402,54 12,44.598 12,33 C12,21.402 21.402,12 33,12 C44.598,12 54,21.402 54,33 C54,38.2274522 52.0899964,43.0087901 48.9297935,46.6842091 Z M50.399992,33.0000372 C50.399992,23.3902654 42.6097632,15.6000366 32.9999914,15.6000366 C23.3902197,15.6000366 15.5999908,23.3902654 15.5999908,33.0000372 C15.5999908,42.6098089 23.3902197,50.4000378 32.9999914,50.4000378 C42.6097632,50.4000378 50.399992,42.6098089 50.399992,33.0000372 Z" id="Fill-1"></path>
        </g>
    </g>
</svg>