<?xml version="1.0" encoding="UTF-8"?>
<svg width="72px" height="72px" viewBox="0 0 72 72" version="1.1" xmlns="http://www.w3.org/2000/svg" xmlns:xlink="http://www.w3.org/1999/xlink">
    <!-- Generator: Sketch 52.2 (67145) - http://www.bohemiancoding.com/sketch -->
    <title>icons_outlined_delete</title>
    <desc>Created with Sketch.</desc>
    <g id="icons_outlined_delete" stroke="none" stroke-width="1" fill="none" fill-rule="evenodd">
        <g id="icon39" fill="#000000" fill-rule="nonzero">
            <path d="M20.3206576,19.1999908 L22.7577175,60.1426047 C22.8331849,61.4104575 23.8833802,62.4 25.1534771,62.4 L46.8465229,62.4 C48.1166198,62.4 49.1668151,61.4104575 49.2422825,60.1426047 L51.6793424,19.1999908 L20.3206576,19.1999908 Z M55.2857143,19.199991 L52.8359219,60.3565118 C52.6472533,63.5261438 50.0217652,66 46.8465229,66 L25.1534771,66 C21.9782348,66 19.3527467,63.5261438 19.1640781,60.3565118 L16.7142857,19.199991 L10.5,19.199991 L10.5,17.0999908 C10.5,16.2715637 11.1715729,15.5999908 12,15.5999908 L60,15.5999908 C60.8284271,15.5999908 61.5,16.2715637 61.5,17.0999908 L61.5,19.199991 L55.2857143,19.199991 Z M42,9.00008186 C42.8284271,9.00008186 43.5,9.67165473 43.5,10.5000819 L43.5,12.6000727 L28.5,12.6000727 L28.5,10.5000819 C28.5,9.67165473 29.1715729,9.00008186 30,9.00008186 L42,9.00008186 Z M28.5,27 L32.1000366,27 L33.6000366,54 L30,54 L28.5,27 Z M39.8999634,27 L43.5,27 L42,54 L38.3999634,54 L39.8999634,27 Z" id="Combined-Shape"></path>
        </g>
    </g>
</svg>