<?xml version="1.0" encoding="UTF-8"?>
<svg width="56px" height="56px" viewBox="0 0 56 56" version="1.1" xmlns="http://www.w3.org/2000/svg" xmlns:xlink="http://www.w3.org/1999/xlink">
    <title>编组 6备份 3</title>
    <defs>
        <rect id="path-1" x="0" y="0" width="56" height="56" rx="5.6"></rect>
    </defs>
    <g id="页面-1" stroke="none" stroke-width="1" fill="none" fill-rule="evenodd">
        <g id="全屏视频-展示" transform="translate(-98.000000, -183.000000)">
            <g id="编组-2备份" transform="translate(62.000000, 123.000000)">
                <g id="编组-6备份-3" transform="translate(36.000000, 60.000000)">
                    <mask id="mask-2" fill="white">
                        <use xlink:href="#path-1"></use>
                    </mask>
                    <use id="头像" fill-opacity="0.3" fill="#FFFFFF" xlink:href="#path-1"></use>
                    <path d="M3.9375,56.75 L3.9375,53.4918656 L3.9375,53.4918656 C3.9375,51.7601129 5.19926381,49.7417671 6.75939197,48.9819799 L21.0964707,41.9997782 C23.1757907,40.9871429 23.6592746,38.7443023 22.1577395,36.9682261 L21.2420157,35.885071 C19.3788308,33.6812208 17.8684211,29.564005 17.8684211,26.6818177 L17.8684211,22.3600504 C17.8684211,16.7764237 22.4158692,12.25 28,12.25 C33.5955165,12.25 38.1315789,16.7822556 38.1315789,22.3616355 L38.1315789,26.6840805 C38.1315789,29.5634981 36.6142037,33.6927859 34.7579839,35.8886985 L33.84226,36.9720022 C32.3490624,38.7384586 32.8155083,40.9867828 34.9035287,42.0032346 L49.2406079,48.9825483 C50.7990959,49.7412228 52.0625,51.7469578 52.0625,53.4918656 L52.0625,56.75 C52.0625,57.3022847 51.6147847,57.75 51.0625,57.75 L4.9375,57.75 C4.38521525,57.75 3.9375,57.3022847 3.9375,56.75 Z" id="Path-67" fill-opacity="0.9" fill="#FFFFFF" mask="url(#mask-2)"></path>
                </g>
            </g>
        </g>
    </g>
</svg>