<?xml version="1.0" encoding="UTF-8"?>
<svg width="24px" height="24px" viewBox="0 0 24 24" version="1.1" xmlns="http://www.w3.org/2000/svg" xmlns:xlink="http://www.w3.org/1999/xlink">
    <title>画板</title>
    <g id="画板" stroke="none" stroke-width="1" fill="none" fill-rule="evenodd">
        <g id="编组" fill="#000000" stroke="#000000" stroke-width="0.6">
            <g id="编组-2" transform="translate(12.000000, 12.000000) rotate(-180.000000) translate(-12.000000, -12.000000) translate(0.000000, 2.000000)">
                <g id="0.图标/线型/icons_outlined_back" transform="translate(0.000000, 8.000000)">
                    <g transform="translate(12.000000, 6.000000) rotate(-270.000000) translate(-12.000000, -6.000000) translate(6.000000, -6.000000)" id="common_icons_back">
                        <path d="M10,19.4375 L8.95453228,20.5 L1.28949286,12.7100853 C0.903610233,12.317916 0.90844613,11.6771693 1.28949286,11.2899147 L8.95453228,3.5 L10,4.5625 L2.68172599,12 L10,19.4375 Z" id="Combined-Shape"></path>
                    </g>
                </g>
                <g id="common_icons_back" transform="translate(12.000000, 6.000000) rotate(-270.000000) translate(-12.000000, -6.000000) translate(6.000000, -6.000000)">
                    <path d="M10,19.4375 L8.95453228,20.5 L1.28949286,12.7100853 C0.903610233,12.317916 0.90844613,11.6771693 1.28949286,11.2899147 L8.95453228,3.5 L10,4.5625 L2.68172599,12 L10,19.4375 Z" id="Combined-Shape"></path>
                </g>
            </g>
        </g>
    </g>
</svg>