<?xml version="1.0" encoding="UTF-8"?>
<svg width="72px" height="72px" viewBox="0 0 72 72" version="1.1" xmlns="http://www.w3.org/2000/svg" xmlns:xlink="http://www.w3.org/1999/xlink">
    <!-- Generator: Sketch 52.2 (67145) - http://www.bohemiancoding.com/sketch -->
    <title>icons_filled_mike</title>
    <desc>Created with Sketch.</desc>
    <g id="icons_filled_mike" stroke="none" stroke-width="1" fill="none" fill-rule="evenodd">
        <g id="Group" fill="#000000" fill-rule="nonzero">
            <path d="M38.25,56.880877 L38.25,66 L33.75,66 L33.75,56.880877 C23.210025,55.7581888 15,46.8378714 15,36 L15,30 L19.5,30 L19.5,36 C19.5,45.1126984 26.8873016,52.5 36,52.5 C45.1126984,52.5 52.5,45.1126984 52.5,36 L52.5,30 L57,30 L57,36 C57,46.8378714 48.789975,55.7581888 38.25,56.880877 Z M24,18 C24,11.372583 29.372583,6 36,6 C42.627417,6 48,11.372583 48,18 L48,36 C48,42.627417 42.627417,48 36,48 C29.372583,48 24,42.627417 24,36 L24,18 Z" id="Combined-Shape"></path>
        </g>
    </g>
</svg>