<?xml version="1.0" encoding="UTF-8"?>
<svg width="40px" height="40px" viewBox="0 0 40 40" version="1.1" xmlns="http://www.w3.org/2000/svg" xmlns:xlink="http://www.w3.org/1999/xlink">
    <title>挂断备份 2</title>
    <g id="挂断备份-2" stroke="none" stroke-width="1" fill="none" fill-rule="evenodd">
        <g id="编组">
            <rect id="矩形" x="0" y="0" width="40" height="40"></rect>
            <path d="M10.1556796,25.258675 L4.47203892,27.7757411 C3.79753293,28.0435695 3.05560532,27.9016009 2.51109477,27.4030842 C2.28953183,27.2072444 2.16572934,26.8509508 2.13383063,26.7796978 C1.15445148,24.3926499 1.71943706,21.48761 3.78673521,19.5258174 C4.36933742,18.9729485 5.03263449,18.5803919 5.19798471,18.491163 C9.9557221,15.6006195 15.2781554,14.1708342 20.5247417,14.1666758 C25.7713279,14.1625173 30.9420671,15.5839856 35.392624,18.4672305 C35.5296997,18.5740393 36.1700745,18.947743 36.6938953,19.4997349 C38.5526141,21.4584158 38.8085229,24.362805 37.5750562,26.7516068 C37.5355728,26.8229164 37.3569493,27.1616301 37.1314259,27.3756438 C36.5507198,27.892872 35.7936228,28.0360288 35.1475595,27.7692471 L29.7312796,25.2609789 C29.4702332,25.1364487 29.4064358,24.9939426 29.3333257,24.6910676 C29.1177875,23.7111614 28.5329062,21.2881617 28.1447695,19.8629027 C28.056658,19.5065808 27.8783709,19.1681501 27.6249092,18.9010572 C27.3545501,18.6161582 26.9902229,18.4204315 26.6202072,18.3316269 C24.5785682,17.7986576 22.4729636,17.4617545 20.3671909,17.4634235 C18.2445207,17.4472864 16.1028888,17.7875559 14.0043645,18.3238067 C13.6248679,18.4132054 13.2584764,18.5916917 12.9389849,18.8948778 C12.638287,19.1802295 12.4427661,19.5011369 12.3167311,19.8576285 C11.7956939,21.2657885 10.9529326,23.6899198 10.6143112,24.6880849 C10.5089661,24.9911013 10.4487928,25.115886 10.1556796,25.258675 Z" id="XMLID_46_-path备份" fill="#000000"></path>
        </g>
    </g>
</svg>