<?xml version="1.0" encoding="UTF-8"?>
<svg width="72px" height="72px" viewBox="0 0 72 72" version="1.1" xmlns="http://www.w3.org/2000/svg" xmlns:xlink="http://www.w3.org/1999/xlink">
    <!-- Generator: Sketch 57.1 (83088) - https://sketch.com -->
    <title>outlined_sperated@2x</title>
    <desc>Created with Sketch.</desc>
    <g id="outlined_sperated" stroke="none" stroke-width="1" fill="none" fill-rule="evenodd" fill-opacity="0.9">
        <path d="M57.0125745,12 C58.6532394,12 60,13.337516 60,14.9874255 L60,57.0125745 C60,58.6532394 58.662484,60 57.0125745,60 L38.9874255,60 C37.3467606,60 36,58.6582557 36,57.0031303 L36,48 L39.6,48 L39.6,56.4 L56.4,56.4 L56.4,15.6 L39.6,15.6 L39.6,24 L36,24 L36,14.9968697 C36,13.3473909 37.337516,12 38.9874255,12 L57.0125745,12 Z M30.0125745,12 C31.6532394,12 33,13.3417443 33,14.9968697 L33,24 L29.4,24 L29.4,15.6 L12.6,15.6 L12.6,56.4 L29.4,56.4 L29.4,48 L33,48 L33,57.0031303 C33,58.6526091 31.662484,60 30.0125745,60 L11.9874255,60 C10.3467606,60 9,58.662484 9,57.0125745 L9,14.9874255 C9,13.3467606 10.337516,12 11.9874255,12 L30.0125745,12 Z M25.263961,25.5 L27.8095455,28.0455845 L21.5485467,34.3065834 L50.4,34.3065834 L50.4,37.9065836 L21.5485102,37.9065836 L27.8095455,44.1676189 L25.263961,46.7132034 L16.7786797,38.2279221 C15.6071068,37.0563492 15.6071068,35.1568542 16.7786797,33.9852814 L25.263961,25.5 Z" id="形状结合" fill="#000000"></path>
    </g>
</svg>