<?xml version="1.0" encoding="UTF-8"?>
<svg width="24px" height="24px" viewBox="0 0 24 24" version="1.1" xmlns="http://www.w3.org/2000/svg" xmlns:xlink="http://www.w3.org/1999/xlink">
    <title>QQmusic</title>
    <g id="QQmusic" stroke="none" stroke-width="1" fill="none" fill-rule="evenodd">
        <path d="M18.3724964,2.85026976 L18.3886236,3.04414454 C21.1800454,5.03891299 23,8.30691991 23,12 C23,18.0751322 18.0751322,23 12,23 C5.92486775,23 1,18.0751322 1,12 C1,5.92486775 5.92486775,1 12,1 C13.5080685,1 14.9452563,1.30347664 16.2538246,1.85269116 C14.4919237,2.68554272 13.0809658,3.05494924 9.44632149,3.36522388 C8.11463879,3.419226 7.82284407,3.98739224 8.57093731,5.0697226 L8.66569996,5.20207024 L13.2488313,13.1414991 C12.8496583,13.0491262 12.4312036,13 12,13 C9.23857625,13 7,15.0147186 7,17.5 C7,19.9852814 9.23857625,22 12,22 C14.7614237,22 17,19.9852814 17,17.5 C17,16.8955894 16.8676009,16.3190099 16.6287811,15.7926554 L16.51999,15.5702152 L16.4787853,15.4973191 L16.440762,15.4300004 L16.440762,15.4300004 L16.4015276,15.3633384 L12,7.70389175 L12.3719774,7.45563577 C14.6940611,5.87697644 16.3421916,4.19840058 17.3163691,2.41990819 L17.3153181,2.41930866 C17.7508367,1.51285362 17.9785312,1.00389814 17.9984016,0.892442226 C18.0199851,0.77137804 18.2482175,1.4391421 18.3724964,2.85026976 Z" id="形状结合" fill="#000000"></path>
    </g>
</svg>