<?xml version="1.0" encoding="UTF-8"?>
<svg width="72px" height="72px" viewBox="0 0 72 72" version="1.1" xmlns="http://www.w3.org/2000/svg" xmlns:xlink="http://www.w3.org/1999/xlink">
    <!-- Generator: Sketch 57.1 (83088) - https://sketch.com -->
    <title>outlined_merge@2x</title>
    <desc>Created with Sketch.</desc>
    <g id="outlined_merge" stroke="none" stroke-width="1" fill="none" fill-rule="evenodd" fill-opacity="0.9">
        <path d="M57.0559727,12 C58.6966377,12 60.0433983,13.337516 60.0433983,14.9874255 L60.0433983,57.0125745 C60.0433983,58.6532394 58.7058823,60 57.0559727,60 L39.0308238,60 C37.3901589,60 36.0433983,58.6582557 36.0433983,57.0031303 L36.0433983,48 L39.6433983,48 L39.6433983,56.4 L56.4433983,56.4 L56.4433983,15.6 L39.6433983,15.6 L39.6433983,24 L36.0433983,24 L36.0433983,14.9968697 C36.0433983,13.3473909 37.3809143,12 39.0308238,12 L57.0559727,12 Z M30.0125745,12 C31.6532394,12 33,13.3417443 33,14.9968697 L33,24 L29.4,24 L29.4,15.6 L12.6,15.6 L12.6,56.4 L29.4,56.4 L29.4,48 L33,48 L33,57.0031303 C33,58.6526091 31.662484,60 30.0125745,60 L11.9874255,60 C10.3467606,60 9,58.662484 9,57.0125745 L9,14.9874255 C9,13.3467606 10.337516,12 11.9874255,12 L30.0125745,12 Z M44.036039,25.3933983 L52.5213203,33.8786797 C53.6928932,35.0502525 53.6928932,36.9497475 52.5213203,38.1213203 L44.036039,46.6066017 L41.4904545,44.0610172 L47.7514533,37.8000183 L18.9,37.8000183 L18.9,34.2000182 L47.7514898,34.2000182 L41.4904545,27.9389828 L44.036039,25.3933983 Z" id="形状结合" fill="#000000"></path>
    </g>
</svg>