<?xml version="1.0" encoding="UTF-8"?>
<svg width="72px" height="72px" viewBox="0 0 72 72" version="1.1" xmlns="http://www.w3.org/2000/svg" xmlns:xlink="http://www.w3.org/1999/xlink">
    <!-- Generator: Sketch 52.2 (67145) - http://www.bohemiancoding.com/sketch -->
    <title>icons_filled_volume-off</title>
    <desc>Created with Sketch.</desc>
    <g id="icons_filled_volume-off" stroke="none" stroke-width="1" fill="none" fill-rule="evenodd">
        <path d="M27.1819805,20.8180195 L33.9,14.1 C35.1,12.9 36.9,12.9 38.1,14.1 C38.7,14.7 39,15.3 39,16.2 L39,32.636039 L47.6356438,41.2716828 C48.4560452,39.6494719 48.9,37.824736 48.9,36 C48.9,33 47.7,30 45.6,27.9 L45.3,27.6 L48.6,24.3 L48.9,24.6 C51.9,27.6 53.7,31.8 53.7,36 C53.7,39.0566016 52.7466517,42.1132033 51.0712253,44.7072643 L53.827004,47.463043 C56.1907137,44.1085487 57.3,40.2391554 57.3,36 C57.3,30.6 55.2,25.8 51.6,21.9 L51.3,21.6 L54.6,18.3 L54.9,18.6 C59.4,23.1 62.1,29.4 62.1,36 C62.1,41.460021 60.457475,46.5094107 57.1724249,50.8084639 L66.2756493,59.9116882 L63.0936688,63.0936688 L12.1819805,12.1819805 L15.363961,9 L27.1819805,20.8180195 Z M39,45.363961 L39,55.8 C39,57.6 37.8,58.8 36,58.8 C35.1,58.8 34.5,58.5 33.9,57.9 L22.5,46.5 L9,46.5 C7.2,46.5 6,45.3 6,43.5 L6,28.5 C6,26.7 7.2,25.5 9,25.5 L19.136039,25.5 L39,45.363961 Z" id="Combined-Shape" fill="#040000"></path>
    </g>
</svg>