<?xml version="1.0" encoding="UTF-8"?>
<svg width="24px" height="24px" viewBox="0 0 24 24" version="1.1" xmlns="http://www.w3.org/2000/svg" xmlns:xlink="http://www.w3.org/1999/xlink">
    <title>icon_filled_voice</title>
    <g id="icon_filled_voice" stroke="none" stroke-width="1" fill="none" fill-rule="evenodd">
        <g id="编组">
            <rect id="矩形" x="0" y="0" width="24" height="24"></rect>
            <path d="M10.5,7.2 L14.0355339,10.7355339 C14.4260582,11.1260582 14.4260582,11.7592232 14.0355339,12.1497475 L10.5,15.6852814 L9.08578644,14.2710678 L10.8232095,12.5322972 C7.35333183,12.865187 4.62325098,15.7312354 4.50405902,19.2593502 L4.5,19.5 L2.5,19.5 C2.5,14.701895 6.25467865,10.7807422 10.9861546,10.5144229 L9.08578644,8.61421356 L10.5,7.2 Z M18.5363729,4.87599548 C20.2012521,6.58726437 21.2266246,8.92388789 21.2266246,11.5 C21.2266246,14.0761121 20.2012521,16.4127356 18.5363729,18.1240045 L17.4763578,17.0624346 C18.8693947,15.6227884 19.7266246,13.6615026 19.7266246,11.5 C19.7266246,9.33849742 18.8693947,7.37721162 17.4763578,5.93756545 L18.5363729,4.87599548 Z M16.0613945,7.35152098 C17.0929128,8.42906572 17.7266246,9.89052719 17.7266246,11.5 C17.7266246,13.1094728 17.0929128,14.5709343 16.0613945,15.648479 L15.0001536,14.5877363 C15.760526,13.781904 16.2266246,12.6953836 16.2266246,11.5 C16.2266246,10.3046164 15.760526,9.21809595 15.0001536,8.41226369 L16.0613945,7.35152098 Z" id="形状" fill="#FFFFFF"></path>
        </g>
    </g>
</svg>