<?xml version="1.0" encoding="UTF-8"?>
<svg width="72px" height="72px" viewBox="0 0 72 72" version="1.1" xmlns="http://www.w3.org/2000/svg" xmlns:xlink="http://www.w3.org/1999/xlink">
    <!-- Generator: Sketch 52.2 (67145) - http://www.bohemiancoding.com/sketch -->
    <title>icons_filled_album</title>
    <desc>Created with Sketch.</desc>
    <g id="icons_filled_album" stroke="none" stroke-width="1" fill="none" fill-rule="evenodd">
        <g id="common_icons_album" fill="#000000" fill-rule="nonzero">
            <path d="M61.5,42.4081746 L61.5,16.5 L10.5,16.5 L10.5,41.5488169 L24.5977366,30.1477759 C25.9853971,29.025555 28.2138768,29.0799815 29.5514863,30.255251 L42.9807687,42.0546791 L49.8273076,36.232493 C51.2139524,35.0533127 53.4201688,35.0772678 54.7662942,36.2852511 L61.5,42.4081746 Z M8.97540933,12 L63.0245907,12 C64.6340833,12 66,13.443411 66,15.2239487 L66,56.7760513 C66,58.5634553 64.6678639,60 63.0245907,60 L8.97540933,60 C7.36591673,60 6,58.556589 6,56.7760513 L6,15.2239487 C6,13.4365447 7.33213613,12 8.97540933,12 Z" id="Combined-Shape"></path>
        </g>
    </g>
</svg>