<?xml version="1.0" encoding="UTF-8"?>
<svg width="24px" height="24px" viewBox="0 0 24 24" version="1.1" xmlns="http://www.w3.org/2000/svg" xmlns:xlink="http://www.w3.org/1999/xlink">
    <title>icons_filled_ban</title>
    <g id="icons_filled_ban" stroke="none" stroke-width="1" fill="none" fill-rule="evenodd">
        <path d="M12,2 C17.5228475,2 22,6.4771525 22,12 C22,17.5228475 17.5228475,22 12,22 C6.4771525,22 2,17.5228475 2,12 C2,6.4771525 6.4771525,2 12,2 Z M4,12 C4,16.418278 7.581722,20 12,20 C13.8486595,20 15.5508646,19.3729536 16.9055298,18.3199461 L5.68005389,7.09447025 C4.62704639,8.44913544 4,10.1513405 4,12 Z M12,4 C10.1513405,4 8.44913544,4.62704639 7.09447025,5.68005389 L18.3199461,16.9055298 C19.3729536,15.5508646 20,13.8486595 20,12 C20,7.581722 16.418278,4 12,4 Z" id="椭圆形" fill="#000000" fill-rule="nonzero"></path>
    </g>
</svg>