<?xml version="1.0" encoding="UTF-8"?>
<svg width="24px" height="24px" viewBox="0 0 24 24" version="1.1" xmlns="http://www.w3.org/2000/svg" xmlns:xlink="http://www.w3.org/1999/xlink">
    <!-- Generator: Sketch 60.1 (88133) - https://sketch.com -->
    <title>Icons_Filled_volume_up</title>
    <desc>Created with Sketch.</desc>
    <g id="Icons_Filled_volume_up" stroke="none" stroke-width="1" fill="none" fill-rule="evenodd" fill-opacity="0.9">
        <path d="M11.3,4.7 C11.7,4.3 12.3,4.3 12.7,4.7 C12.9,4.9 13,5.1 13,5.4 L13,18.6 C13,19.2 12.6,19.6 12,19.6 C11.7,19.6 11.5,19.5 11.3,19.3 L7.5,15.5 L3,15.5 C2.4,15.5 2,15.1 2,14.5 L2,9.5 C2,8.9 2.4,8.5 3,8.5 L7.5,8.5 L11.3,4.7 Z M18.2,17.9 L17.1,16.8 L17.2,16.7 C18.5,15.4 19.1,13.8 19.1,12 C19.1,10.2 18.4,8.6 17.2,7.3 L17.1,7.2 L18.2,6.1 L18.3,6.2 C19.8,7.7 20.7,9.8 20.7,12 C20.7,14.2 19.9,16.2 18.3,17.8 L18.2,17.9 Z M16.2,15.9 L15.1,14.8 L15.2,14.7 C15.9,14 16.3,13 16.3,12 C16.3,11 15.9,10 15.2,9.3 L15.1,9.2 L16.2,8.1 L16.3,8.2 C17.3,9.2 17.9,10.6 17.9,12 C17.9,13.4 17.3,14.8 16.3,15.8 L16.2,15.9 Z" fill="#000000"></path>
    </g>
</svg>