<?xml version="1.0" encoding="UTF-8"?>
<svg width="24px" height="24px" viewBox="0 0 24 24" version="1.1" xmlns="http://www.w3.org/2000/svg" xmlns:xlink="http://www.w3.org/1999/xlink">
    <!-- Generator: Sketch 60.1 (88133) - https://sketch.com -->
    <title>icon_filled_mike_off</title>
    <desc>Created with Sketch.</desc>
    <g id="icon_filled_mike_off" stroke="none" stroke-width="1" fill="none" fill-rule="evenodd" fill-opacity="0.9">
        <path d="M16.8030445,14.6817241 C17.2469581,13.8883641 17.5,12.9737326 17.5,12 L17.5,10 L19,10 L19,12 C19,13.390109 18.5947944,14.6855772 17.896054,15.7747337 L22.0918831,19.9705627 L21.0312229,21.0312229 L4.06066017,4.06066017 L5.12132034,3 L8.00175287,5.88043252 C8.06498285,3.72660226 9.83085664,2 12,2 C14.209139,2 16,3.790861 16,6 L16,12 C16,12.5542738 15.8872635,13.0822167 15.6834697,13.5621493 L16.8030445,14.6817241 L16.8030445,14.6817241 Z M14.6817241,16.8030445 L15.7747337,17.896054 C14.8840933,18.4674378 13.8554945,18.8425382 12.75,18.9602923 L12.75,22 L11.25,22 L11.25,18.9602923 C7.736675,18.5860629 5,15.6126238 5,12 L5,10 L6.5,10 L6.5,12 C6.5,15.0375661 8.96243388,17.5 12,17.5 C12.9737326,17.5 13.8883641,17.2469581 14.6817241,16.8030445 L14.6817241,16.8030445 Z M13.5621493,15.6834697 C13.0822167,15.8872635 12.5542738,16 12,16 C9.790861,16 8,14.209139 8,12 L8,10.1213203 L13.5621493,15.6834697 L13.5621493,15.6834697 Z" fill="#000000"></path>
    </g>
</svg>