<?xml version="1.0" encoding="UTF-8"?>
<svg width="24px" height="24px" viewBox="0 0 24 24" version="1.1" xmlns="http://www.w3.org/2000/svg" xmlns:xlink="http://www.w3.org/1999/xlink">
    <title>3.Icons/filled/switchcamera</title>
    <g id="3.Icons/filled/switchcamera" stroke="none" stroke-width="1" fill="none" fill-rule="evenodd">
        <g id="编组-4">
            <rect id="矩形" x="0" y="0" width="24" height="24"></rect>
            <path d="M14.7324081,4 C14.8995847,4 15.0557004,4.08355057 15.1484333,4.2226499 L17,7 L21,7 C21.5522847,7 22,7.44771525 22,8 L22,19 C22,19.5522847 21.5522847,20 21,20 L3,20 C2.44771525,20 2,19.5522847 2,19 L2,8 C2,7.44771525 2.44771525,7 3,7 L7,7 L8.85156673,4.2226499 C8.94429962,4.08355057 9.10041529,4 9.26759188,4 L14.7324081,4 Z M8,12 L6,14 L7.40900792,14.0000273 C7.86560448,16.0596882 9.7029227,17.6 11.9,17.6 C13.146032,17.6 14.3127783,17.1011374 15.1681718,16.2371849 L15.3350304,16.0595661 L14.4391882,15.261151 L14.2975872,15.4107811 C13.6665465,16.0388344 12.8130136,16.4 11.9,16.4 C10.43684,16.4 9.18954571,15.4757691 8.71007647,14.1792665 L8.64950538,14.0002151 L10,14 L8,12 Z M12,8.4 C10.753968,8.4 9.58722169,8.89886256 8.73182816,9.76281511 L8.56496959,9.94043385 L9.46081178,10.738849 L9.6024128,10.5892189 C10.2334535,9.96116561 11.0869864,9.6 12,9.6 C13.4628099,9.6 14.7098573,10.5237887 15.1895792,11.8198028 L15.2501879,11.9987874 L14,12 L16,14 L18,12 L16.490771,11.9989761 C16.0338028,9.93981492 14.1967229,8.4 12,8.4 Z" id="形状" fill="#FFFFFF"></path>
            <g id="icon20" transform="translate(2.000000, 4.000000)"></g>
        </g>
    </g>
</svg>