<?xml version="1.0" encoding="UTF-8"?>
<svg width="24px" height="24px" viewBox="0 0 24 24" version="1.1" xmlns="http://www.w3.org/2000/svg" xmlns:xlink="http://www.w3.org/1999/xlink">
    <title>icons_outlined_human_background</title>
    <g id="icons_outlined_human_background" stroke="none" stroke-width="1" fill="none" fill-rule="evenodd">
        <g id="icon_filled_mike_off" fill="#000000" fill-rule="nonzero">
            <path d="M19.2651891,2 C19.8801085,2 20.2415892,2.04140134 20.5142749,2.12093231 L20.5707849,2.13835411 C20.6949609,2.17875309 20.8016649,2.22773307 20.9086354,2.28494155 C21.2562897,2.47086912 21.5291309,2.74371026 21.7150584,3.09136458 C21.900986,3.4390189 22,3.78385756 22,4.73481088 L22,19.2651891 C22,20.2161424 21.900986,20.5609811 21.7150584,20.9086354 C21.5291309,21.2562897 21.2562897,21.5291309 20.9086354,21.7150584 C20.5609811,21.900986 20.2161424,22 19.2651891,22 L4.73481088,22 C3.78385756,22 3.4390189,21.900986 3.09136458,21.7150584 C2.74371026,21.5291309 2.47086912,21.2562897 2.28494155,20.9086354 C2.11331611,20.5877237 2.0157472,20.2692112 2.00175214,19.4741576 L2,4.73481088 C2,3.78385756 2.09901399,3.4390189 2.28494155,3.09136458 C2.47086912,2.74371026 2.74371026,2.47086912 3.09136458,2.28494155 C3.41227626,2.11331611 3.7307888,2.0157472 4.52584238,2.00175214 L8.187,2.00164902 L8.188,2.00064902 L15.259,2.00064902 L15.26,1.99964902 L19.2651891,2 Z M9.416,18.449649 L7.719,18.449649 L5.37,20.798649 L7.067,20.798649 L9.416,18.449649 Z M12.951,18.449649 L11.254,18.449649 L8.905,20.798649 L10.602,20.798649 L12.951,18.449649 Z M16.487,18.449649 L14.79,18.449649 L12.441,20.798649 L14.138,20.798649 L16.487,18.449649 Z M20.799,15.975649 L15.976,20.798649 L17.673,20.798649 L20.799,17.673649 L20.799,15.975649 Z M20.798,19.512649 L19.514,20.796649 L19.695123,20.7924902 C20.0483391,20.7769924 20.1946024,20.7360951 20.3427168,20.6568826 C20.4812489,20.5827948 20.5827948,20.4812489 20.6568826,20.3427168 C20.7272937,20.2110595 20.767431,20.0808649 20.7863658,19.8054832 L20.7967332,19.5694329 L20.798,19.512649 Z M5.41184974,17.2226355 L3.2,19.433649 L3.20858072,19.7183664 C3.22484421,20.0548406 3.26566522,20.1978938 3.34311739,20.3427168 C3.41720519,20.4812489 3.51875106,20.5827948 3.65728321,20.6568826 L3.668,20.662649 L6.19027885,18.1428359 C5.84487998,17.9247256 5.57102066,17.6036092 5.41184974,17.2226355 Z M8.50527949,10.5923693 L3.2,15.898649 L3.2,17.595649 L5.47250444,15.3215251 C5.67745075,14.8722275 6.0162494,14.4772583 6.4306706,14.230081 L6.58195491,14.1481668 L6.712,14.083649 L8.88642422,11.9117671 C8.70180321,11.4860018 8.56747105,11.0263319 8.50527949,10.5923693 Z M12,6.75 C10.7139578,6.75 9.66666667,7.79455933 9.66666667,9.08308855 L9.66666667,9.08308855 L9.66666667,10.0804195 C9.66666667,10.7455396 10.0145186,11.6956663 10.4436157,12.2042472 L10.4436157,12.2042472 L10.6545097,12.454206 C11.0003178,12.8640698 10.88897,13.3816484 10.4100963,13.6153334 L10.4100963,13.6153334 L7.1082236,15.2266107 C6.74892136,15.4019463 6.45833333,15.8677184 6.45833333,16.2673536 L6.45833333,16.2673536 L6.45833333,16.4535556 C6.45833333,16.8934197 6.81491366,17.25 7.25477778,17.25 L7.25477778,17.25 L16.7452222,17.25 C17.1850863,17.25 17.5416667,16.8934197 17.5416667,16.4535556 L17.5416667,16.4535556 L17.5416667,16.2673536 C17.5416667,15.8646826 17.2507009,15.4018206 16.8917764,15.2267419 L16.8917764,15.2267419 L13.5899036,13.6161311 C13.1090262,13.3815653 13.0016022,12.8627212 13.3454902,12.4550774 L13.3454902,12.4550774 L13.5563842,12.2050843 C13.9838772,11.6983352 14.3333333,10.7454226 14.3333333,10.0809416 L14.3333333,10.0809416 L14.3333333,9.08345436 C14.3333333,7.79590513 13.2886644,6.75 12,6.75 Z M20.799,12.439649 L18.3078501,14.9325868 C18.5460376,15.2791929 18.700117,15.6855646 18.7344066,16.0950843 L18.7344066,16.0950843 L18.738,16.198649 L20.799,14.137649 L20.799,12.439649 Z M20.799,8.90464902 L16.166,13.537649 L17.307,14.093649 L20.799,10.601649 L20.799,8.90464902 Z M14.059,3.20064902 L12.362,3.20064902 L3.2,12.362649 L3.2,14.059649 L8.47951679,8.77991262 C8.62498326,7.07138474 9.98839215,5.70874432 11.6959855,5.56292438 L14.059,3.20064902 Z M20.799,5.36964902 L15.479246,10.6915442 C15.3670699,11.3626908 15.0888667,12.0847061 14.724537,12.6401512 L14.724537,12.6401512 L14.6223597,12.7843597 L14.931,12.934649 L20.799,7.06564902 L20.799,5.36964902 Z M10.523,3.20064902 L8.826,3.20064902 L3.2,8.82764902 L3.2,10.524649 L10.523,3.20064902 Z M19.4338549,3.20087727 L15.1510999,7.48378558 C15.3564157,7.8872938 15.4865027,8.33543879 15.5228763,8.80970858 L20.6631657,3.66918529 C20.6610986,3.66521659 20.6590044,3.66125056 20.6568826,3.65728321 C20.5827948,3.51875106 20.4812489,3.41720519 20.3427168,3.34311739 C20.2110595,3.27270633 20.0808649,3.23256895 19.8054832,3.21363415 L19.5694329,3.2032668 C19.5269018,3.20220687 19.4817917,3.20141546 19.4338549,3.20087727 Z M6.988,3.20064902 L5.291,3.20064902 L3.2,5.29164902 L3.2,6.98864902 L6.988,3.20064902 Z M17.595,3.20064902 L15.897,3.20064902 L13.3012498,5.79749322 C13.6895334,5.95147097 14.0440677,6.17229993 14.3506493,6.4457558 L17.595,3.20064902 Z" id="形状结合"></path>
        </g>
    </g>
</svg>