<?xml version="1.0" encoding="UTF-8"?>
<svg width="72px" height="72px" viewBox="0 0 72 72" version="1.1" xmlns="http://www.w3.org/2000/svg" xmlns:xlink="http://www.w3.org/1999/xlink">
    <!-- Generator: Sketch 52.2 (67145) - http://www.bohemiancoding.com/sketch -->
    <title>icons_filled_more</title>
    <desc>Created with Sketch.</desc>
    <g id="icons_filled_more" stroke="none" stroke-width="1" fill="none" fill-rule="evenodd">
        <g id="common_icons_more" fill="#000000">
            <path d="M21,36 C21,39.3132 18.3132,42 15,42 C11.6868,42 9,39.3132 9,36 C9,32.6856 11.6868,30 15,30 C18.3132,30 21,32.6856 21,36 Z M36,30 C39.3132,30 42,32.6856 42,36 C42,39.3132 39.3132,42 36,42 C32.6868,42 30,39.3132 30,36 C30,32.6856 32.6868,30 36,30 Z M57,30 C60.3132,30 63,32.6856 63,36 C63,39.3132 60.3132,42 57,42 C53.6868,42 51,39.3132 51,36 C51,32.6856 53.6868,30 57,30 Z" id="Combined-Shape"></path>
        </g>
    </g>
</svg>