<?xml version="1.0" encoding="UTF-8"?>
<svg width="40px" height="40px" viewBox="0 0 40 40" version="1.1" xmlns="http://www.w3.org/2000/svg" xmlns:xlink="http://www.w3.org/1999/xlink">
    <title>接听备份 9</title>
    <g id="接听备份-9" stroke="none" stroke-width="1" fill="none" fill-rule="evenodd">
        <rect id="矩形" x="0" y="0" width="40" height="40"></rect>
        <g id="编组" transform="translate(4.166667, 5.000000)" fill="#000000">
            <path d="M24.3107208,21.0539846 C23.9851308,20.9511568 23.8494683,21.0025707 23.5510107,21.1568123 C22.5742407,21.6709512 20.1865806,22.9048843 18.7756906,23.5989717 C18.4229681,23.7789203 18.0431131,23.8817481 17.6089931,23.8817481 C17.1477405,23.8817481 16.740753,23.7532134 16.3880305,23.5475578 C14.407358,22.4421594 12.5352154,21.1568123 10.9343978,19.6143959 C9.33358029,18.0976864 7.97695525,16.3239075 6.81025772,14.4473008 C6.59319771,14.1131105 6.4575352,13.7017995 6.4575352,13.2904884 C6.4575352,12.9048843 6.56606521,12.5192802 6.75599271,12.18509 C7.48857024,10.8226221 8.79093028,8.56041131 9.33358029,7.66066838 C9.4963753,7.37789203 9.5506403,7.22365039 9.4421103,6.94087404 L7.13584773,1.1311054 C6.83739022,0.462724936 6.15907769,0.0257069409 5.34510267,0 C5.01951266,0 4.63965765,0.128534704 4.55826014,0.154241645 C1.89927506,1.07969152 0,3.47043702 0,6.29820051 C0,7.09511568 0.217060007,7.84061697 0.244192508,8.02056555 C1.54655255,13.4190231 4.44973014,18.2262211 8.43820777,22.0051414 C12.4266854,25.7840617 17.5004631,28.5347044 23.1982882,29.7686375 C23.3882157,29.8200514 24.1750583,30 25.0161658,30 C28.0007409,30 30.5240635,28.2005141 31.5008335,25.6812339 C31.527966,25.6041131 31.690761,25.2442159 31.6636285,24.9357326 C31.6093635,24.1645244 31.148111,23.5218509 30.442666,23.2390746 L24.3107208,21.0539846 Z" id="XMLID_46_-path"></path>
        </g>
    </g>
</svg>