<?xml version="1.0" encoding="UTF-8"?>
<svg width="24px" height="24px" viewBox="0 0 24 24" version="1.1" xmlns="http://www.w3.org/2000/svg" xmlns:xlink="http://www.w3.org/1999/xlink">
    <title>icons_filled_edit.svg</title>
    <g id="icons_filled_edit.svg" stroke="none" stroke-width="1" fill="none" fill-rule="evenodd">
        <path d="M15,15.5 L15,17 L21,17 L21,19 L15,19 L15,20.5 L13,20.5 L13,15.5 L15,15.5 Z M11,17 L11,19 L3,19 L3,17 L11,17 Z M8,9.5 L10,9.5 L10,11 L21,11 L21,13 L10,13 L10,14.5 L8,14.5 L8,9.5 Z M6,13 L3,13 L3,11 L6,11 L6,13 Z M18,3.5 L18,5 L21,5 L21,7 L18,7 L18,8.5 L16,8.5 L16,3.5 L18,3.5 Z M14,5 L14,7 L3,7 L3,5 L14,5 Z" id="形状结合" fill="#000000"></path>
    </g>
</svg>