<?xml version="1.0" encoding="UTF-8"?>
<svg width="24px" height="24px" viewBox="0 0 24 24" version="1.1" xmlns="http://www.w3.org/2000/svg" xmlns:xlink="http://www.w3.org/1999/xlink">
    <title>icons_filled_cut备份</title>
    <g id="icons_filled_cut备份" stroke="none" stroke-width="1" fill="none" fill-rule="evenodd">
        <g id="编组-14">
            <rect id="矩形" x="0" y="0" width="24" height="24"></rect>
            <path d="M7.05882353,12.6176471 C9.30044987,12.6176471 11.1176471,14.4348443 11.1176471,16.6764706 C11.1176471,18.9180969 9.30044987,20.7352941 7.05882353,20.7352941 C4.81719719,20.7352941 3,18.9180969 3,16.6764706 C3,14.4348443 4.81719719,12.6176471 7.05882353,12.6176471 Z M16.9411765,12.6176471 C19.1828028,12.6176471 21,14.4348443 21,16.6764706 C21,18.9180969 19.1828028,20.7352941 16.9411765,20.7352941 C14.6995501,20.7352941 12.8823529,18.9180969 12.8823529,16.6764706 C12.8823529,14.4348443 14.6995501,12.6176471 16.9411765,12.6176471 Z M7.05882353,14.5588235 C5.88927935,14.5588235 4.94117647,15.5069264 4.94117647,16.6764706 C4.94117647,17.8460148 5.88927935,18.7941176 7.05882353,18.7941176 C8.22836771,18.7941176 9.17647059,17.8460148 9.17647059,16.6764706 C9.17647059,15.5069264 8.22836771,14.5588235 7.05882353,14.5588235 Z M16.9411765,14.5588235 C15.7716323,14.5588235 14.8235294,15.5069264 14.8235294,16.6764706 C14.8235294,17.8460148 15.7716323,18.7941176 16.9411765,18.7941176 C18.1107206,18.7941176 19.0588235,17.8460148 19.0588235,16.6764706 C19.0588235,15.5069264 18.1107206,14.5588235 16.9411765,14.5588235 Z M18.4888095,3.0457446 L18.624352,3.19039185 C19.576722,4.27560547 19.6137072,5.88386334 18.7353077,7.00970175 L18.6098521,7.16014054 L18.4888095,7.28838529 L11.9996602,13.7767251 L5.51132035,7.2883853 L5.39027775,7.16014054 C4.38495166,6.03114927 4.38011836,4.32493336 5.37577785,3.19039185 L5.51132035,3.0457446 L11.9996407,9.5347446 L18.4888095,3.0457446 Z" id="形状结合" fill-opacity="0.9" fill="#000000"></path>
        </g>
    </g>
</svg>