<?xml version="1.0" encoding="UTF-8"?>
<svg width="24px" height="24px" viewBox="0 0 24 24" version="1.1" xmlns="http://www.w3.org/2000/svg" xmlns:xlink="http://www.w3.org/1999/xlink">
    <title>icons_filled_ringing</title>
    <g id="icons_filled_ringing" stroke="none" stroke-width="1" fill="none" fill-rule="evenodd" fill-opacity="0.9">
        <path d="M12.0352572,6 L15.6755316,6.34970653 C15.7786311,6.35961774 15.8571429,6.44301849 15.8571429,6.54262492 L15.8571429,8.4794967 C15.8571429,8.57127723 15.7908048,8.64816258 15.7017072,8.66825675 L15.6454172,8.67313658 L13.4369743,8.46049158 L13.4369743,16.0611942 L13.4278731,16.0618191 C13.3256727,17.1485121 12.3755187,18 11.2184879,18 C9.99325085,18 9,17.0451638 9,15.8673137 C9,14.6894635 9.99325085,13.7346273 11.2184879,13.7346273 C11.428403,13.7346273 11.6315088,13.7626543 11.8239768,13.815028 L11.8235285,6.19363988 C11.8235285,6.10185935 11.8898696,6.024974 11.9789672,6.00487983 L12.0352572,6 Z" id="路径" fill="#000000"></path>
    </g>
</svg>