<?xml version="1.0" encoding="UTF-8"?>
<svg width="24px" height="24px" viewBox="0 0 24 24" version="1.1" xmlns="http://www.w3.org/2000/svg" xmlns:xlink="http://www.w3.org/1999/xlink">
    <title>icons_filled_volume_close</title>
    <g id="icons_filled_volume_close" stroke="none" stroke-width="1" fill="none" fill-rule="evenodd">
        <path d="M11.3,4.7 C11.7,4.3 12.3,4.3 12.7,4.7 C12.9,4.9 13,5.1 13,5.4 L13,5.4 L13,18.6 C13,19.2 12.6,19.6 12,19.6 C11.7,19.6 11.5,19.5 11.3,19.3 L11.3,19.3 L7.5,15.5 L3,15.5 C2.4,15.5 2,15.1 2,14.5 L2,14.5 L2,9.5 C2,8.9 2.4,8.5 3,8.5 L3,8.5 L7.5,8.5 Z M20.298097,8.64124279 L21.3587572,9.70190296 L19.0606602,12 L21.3587572,14.298097 L20.298097,15.3587572 L18,13.0606602 L15.701903,15.3587572 L14.6412428,14.298097 L16.9393398,12 L14.6412428,9.70190296 L15.701903,8.64124279 L18,10.9393398 L20.298097,8.64124279 Z" id="形状结合" fill="#000000"></path>
    </g>
</svg>