<?xml version="1.0" encoding="UTF-8"?>
<svg width="72px" height="72px" viewBox="0 0 72 72" version="1.1" xmlns="http://www.w3.org/2000/svg" xmlns:xlink="http://www.w3.org/1999/xlink">
    <!-- Generator: Sketch 46.2 (44496) - http://www.bohemiancoding.com/sketch -->
    <title>Actionbar_icon_dark_more</title>
    <desc>Created with Sketch.</desc>
    <defs></defs>
    <g id="WeChat-UI-Kit" stroke="none" stroke-width="1" fill="none" fill-rule="evenodd">
        <g id="Actionbar_icon_dark_more" fill="#000000">
            <g id="Fill-43">
                <g>
                    <path d="M18,37.5 C18,39.9849 15.9849,42 13.5,42 C11.0151,42 9,39.9849 9,37.5 C9,35.0142 11.0151,33 13.5,33 C15.9849,33 18,35.0142 18,37.5 Z M34.5,33 C36.9849,33 39,35.0142 39,37.5 C39,39.9849 36.9849,42 34.5,42 C32.0151,42 30,39.9849 30,37.5 C30,35.0142 32.0151,33 34.5,33 Z M55.5,33 C57.9849,33 60,35.0142 60,37.5 C60,39.9849 57.9849,42 55.5,42 C53.0151,42 51,39.9849 51,37.5 C51,35.0142 53.0151,33 55.5,33 Z"></path>
                </g>
            </g>
        </g>
    </g>
</svg>