<?xml version="1.0" encoding="UTF-8"?>
<svg width="72px" height="72px" viewBox="0 0 72 72" version="1.1" xmlns="http://www.w3.org/2000/svg" xmlns:xlink="http://www.w3.org/1999/xlink">
    <!-- Generator: Sketch Beta 50.1 (55040) - http://www.bohemiancoding.com/sketch -->
    <title>Icons/searchbar/voiceinput</title>
    <desc>Created with Sketch Beta.</desc>
    <defs></defs>
    <g id="Icons/searchbar/voiceinput" stroke="none" stroke-width="1" fill="none" fill-rule="evenodd" opacity="0.300000012">
        <g id="Fav" transform="translate(-9.000000, -3.000000)" fill="#333333">
            <g id="Group-24" transform="translate(44.124293, 45.921145) rotate(30.000000) translate(-44.124293, -45.921145) translate(14.124293, 11.421145)">
                <path d="M29.9766084,53.9908905 L28.0237197,58.7063688 L26.070831,53.9908905 L26.051669,53.9908905 L26.051669,47.6835009 C17.1775384,46.7025156 10.2752632,39.1789975 10.2752632,30.0433668 L10.2752632,23.1806303 L14.2193647,23.1806303 L14.2193647,29.8856027 C14.2193647,37.5095375 20.3997849,43.6899578 28.0237197,43.6899578 C35.6476545,43.6899578 41.8280748,37.5095375 41.8280748,29.8856027 L41.8280748,23.1806303 L45.7721762,23.1806303 L45.7721762,30.0433668 C45.7721762,39.1789975 38.869901,46.7025156 29.9957704,47.6835009 L29.9957704,53.9908905 L29.9766084,53.9908905 Z M28.0237197,2.67130276 C33.4693874,2.67130276 37.8839733,7.08588867 37.8839733,12.5315564 L37.8839733,29.7278387 C37.8839733,35.1735064 33.4693874,39.5880923 28.0237197,39.5880923 C22.578052,39.5880923 18.1634661,35.1735064 18.1634661,29.7278387 L18.1634661,12.5315564 C18.1634661,7.08588867 22.578052,2.67130276 28.0237197,2.67130276 Z" id="Combined-Shape"></path>
            </g>
        </g>
    </g>
</svg>