<?xml version="1.0" encoding="UTF-8"?>
<svg width="144px" height="144px" viewBox="0 0 144 144" version="1.1" xmlns="http://www.w3.org/2000/svg" xmlns:xlink="http://www.w3.org/1999/xlink">
    <!-- Generator: Sketch 44.1 (41455) - http://www.bohemiancoding.com/sketch -->
    <title>亮度3x</title>
    <desc>Created with Sketch.</desc>
    <defs></defs>
    <g id="Page-1" stroke="none" stroke-width="1" fill="none" fill-rule="evenodd">
        <g id="亮度3x">
            <g id="Group-6">
                <rect id="Rectangle-4" fill="#D8D8D8" opacity="0" x="0" y="0" width="144" height="144"></rect>
                <path d="M72,102 C55.4314575,102 42,88.5685425 42,72 C42,55.4314575 55.4314575,42 72,42 C88.5685425,42 102,55.4314575 102,72 C102,88.5685425 88.5685425,102 72,102 Z M72,96 C85.254834,96 96,85.254834 96,72 C96,58.745166 85.254834,48 72,48 C72,64.3586426 72,82.3066406 72,96 Z M3,69 L30,69 L30,75 L3,75 L3,69 Z M69,3 L75,3 L75,30 L69,30 L69,3 Z M69,114 L75,114 L75,141 L69,141 L69,114 Z M114,69 L141,69 L141,75 L114,75 L114,69 Z M25.3309524,21.0883118 L44.4228355,40.1801948 L40.1801948,44.4228355 L21.0883118,25.3309524 L25.3309524,21.0883118 Z M118.669048,21.0883118 L122.911688,25.3309524 L103.819805,44.4228355 L99.5771645,40.1801948 L118.669048,21.0883118 Z M40.1801948,99.5771645 L44.4228355,103.819805 L25.3309524,122.911688 L21.0883118,118.669048 L40.1801948,99.5771645 Z M103.819805,99.5771645 L122.911688,118.669048 L118.669048,122.911688 L99.5771645,103.819805 L103.819805,99.5771645 Z" id="Combined-Shape" fill="#FFFFFF"></path>
            </g>
        </g>
    </g>
</svg>