<?xml version="1.0" encoding="UTF-8" standalone="no"?>
<svg width="110px" height="47px" viewBox="0 0 110 47" version="1.1" xmlns="http://www.w3.org/2000/svg" xmlns:xlink="http://www.w3.org/1999/xlink">
    <!-- Generator: Sketch 43.1 (39012) - http://www.bohemiancoding.com/sketch -->
    <title>Barrage</title>
    <desc>Created with Sketch.</desc>
    <defs></defs>
    <g id="多媒体控件" stroke="none" stroke-width="1" fill="none" fill-rule="evenodd">
        <g id="Artboard" transform="translate(-558.000000, -160.000000)">
            <g id="Barrage" transform="translate(558.000000, 160.000000)">
                <rect id="弹幕Btn_Pressed-Copy" stroke="#FFFFFF" stroke-width="3" x="1.5" y="1.5" width="107" height="44" rx="22"></rect>
                <path d="M31.969,18.689 L37.045,18.689 L37.045,11.075 L29.836,11.075 L29.836,12.776 L35.155,12.776 L35.155,16.988 L30.241,16.988 L29.539,24.764 L35.425,24.764 C35.425,28.004 35.29,30.164 35.02,31.19 C34.777,32.162 33.859,32.675 32.266,32.675 C31.591,32.675 30.943,32.621 30.295,32.567 L30.781,34.376 C31.429,34.43 32.077,34.484 32.698,34.484 C35.101,34.376 36.478,33.566 36.829,32 C37.099,30.596 37.261,27.599 37.261,23.063 L31.51,23.063 L31.969,18.689 Z M39.367,14.315 L47.224,14.315 C48.034,12.857 48.709,11.345 49.303,9.752 L51.166,10.4 C50.572,11.858 49.897,13.181 49.141,14.315 L52.651,14.315 L52.651,25.142 L46.9,25.142 L46.9,27.761 L53.839,27.761 L53.839,29.57 L46.9,29.57 L46.9,34.754 L45.01,34.754 L45.01,29.57 L38.179,29.57 L38.179,27.761 L45.01,27.761 L45.01,25.142 L39.367,25.142 L39.367,14.315 Z M50.896,23.495 L50.896,20.579 L46.9,20.579 L46.9,23.495 L50.896,23.495 Z M45.01,23.495 L45.01,20.579 L41.095,20.579 L41.095,23.495 L45.01,23.495 Z M41.095,18.959 L45.01,18.959 L45.01,15.962 L41.095,15.962 L41.095,18.959 Z M46.9,15.962 L46.9,18.959 L50.896,18.959 L50.896,15.962 L46.9,15.962 Z M42.553,9.914 C43.363,11.021 44.065,12.209 44.659,13.451 L42.985,14.18 C42.337,12.776 41.581,11.561 40.771,10.481 L42.553,9.914 Z M67.636,26.141 L69.472,26.141 L69.472,28.031 L75.709,28.031 C74.251,27.167 73.117,26.249 72.307,25.223 L65.314,25.223 C64.369,26.249 63.181,27.194 61.75,28.031 L67.636,28.031 L67.636,26.141 Z M67.636,29.516 L62.533,29.516 L62.533,34.025 L60.697,34.025 L60.697,28.598 C59.563,29.165 58.348,29.678 57.052,30.137 L56.215,28.517 C59.131,27.599 61.399,26.519 62.992,25.223 L56.89,25.223 L56.89,23.603 L64.558,23.603 C64.882,23.144 65.152,22.685 65.368,22.199 L59.86,22.199 L59.86,15.044 L62.992,15.044 L62.992,13.316 L56.566,13.316 L56.566,11.723 L62.992,11.723 L62.992,9.914 L64.855,9.914 L64.855,11.723 L72.172,11.723 L72.172,9.914 L74.035,9.914 L74.035,11.723 L80.461,11.723 L80.461,13.316 L74.035,13.316 L74.035,15.044 L77.167,15.044 L77.167,22.199 L67.177,22.199 C66.988,22.685 66.772,23.144 66.502,23.603 L80.11,23.603 L80.11,25.223 L74.278,25.223 C75.763,26.546 77.977,27.599 80.893,28.355 L80.11,29.975 C78.868,29.543 77.788,29.111 76.87,28.652 L76.87,31.919 C76.87,33.323 76.087,34.052 74.521,34.052 L72.469,34.052 L72.064,32.432 L73.981,32.486 C74.683,32.486 75.034,32.162 75.034,31.514 L75.034,29.516 L69.472,29.516 L69.472,34.7 L67.636,34.7 L67.636,29.516 Z M72.172,13.316 L64.855,13.316 L64.855,15.044 L72.172,15.044 L72.172,13.316 Z M75.331,20.849 L75.331,19.229 L61.696,19.229 L61.696,20.849 L75.331,20.849 Z M61.696,17.96 L75.331,17.96 L75.331,16.448 L61.696,16.448 L61.696,17.96 Z" id="弹幕" fill="#FFFFFF"></path>
            </g>
        </g>
    </g>
</svg>