<?xml version="1.0" encoding="UTF-8" standalone="no"?>
<svg width="156px" height="67px" viewBox="0 0 156 67" version="1.1" xmlns="http://www.w3.org/2000/svg" xmlns:xlink="http://www.w3.org/1999/xlink">
    <!-- Generator: Sketch 43.1 (39012) - http://www.bohemiancoding.com/sketch -->
    <title>Barrage.HL.maximize</title>
    <desc>Created with Sketch.</desc>
    <defs></defs>
    <g id="多媒体控件" stroke="none" stroke-width="1" fill="none" fill-rule="evenodd">
        <g id="Artboard" transform="translate(-353.000000, -237.000000)">
            <g id="Barrage.HL.maximize" transform="translate(353.000000, 237.000000)">
                <rect id="弹幕Btn_Pressed-Copy" stroke="#09BB07" stroke-width="4" x="2" y="2" width="152" height="63" rx="31.5"></rect>
                <path d="M45.3411019,26.9414782 L52.5439459,26.9414782 L52.5439459,16.1372122 L42.3143749,16.1372122 L42.3143749,18.5509312 L49.8620359,18.5509312 L49.8620359,24.5277592 L42.8890699,24.5277592 L41.8929319,35.5619032 L50.2451659,35.5619032 C50.2451659,40.1594632 50.0536009,43.2245032 49.6704709,44.6803972 C49.3256539,46.0596652 48.0230119,46.7876122 45.7625449,46.7876122 C44.8047199,46.7876122 43.8852079,46.7109862 42.9656959,46.6343602 L43.6553299,49.2013312 C44.5748419,49.2779572 45.4943539,49.3545832 46.3755529,49.3545832 C49.7854099,49.2013312 51.7393729,48.0519412 52.2374419,45.8297872 C52.6205719,43.8375112 52.8504499,39.5847682 52.8504499,33.1481842 L44.6897809,33.1481842 L45.3411019,26.9414782 Z M55.8388639,20.7347722 L66.9879469,20.7347722 C68.1373369,18.6658702 69.0951619,16.5203422 69.9380479,14.2598752 L72.5816449,15.1793872 C71.7387589,17.2482892 70.7809339,19.1256262 69.7081699,20.7347722 L74.6888599,20.7347722 L74.6888599,36.0982852 L66.5281909,36.0982852 L66.5281909,39.8146462 L76.3746319,39.8146462 L76.3746319,42.3816172 L66.5281909,42.3816172 L66.5281909,49.7377132 L63.8462809,49.7377132 L63.8462809,42.3816172 L54.1530919,42.3816172 L54.1530919,39.8146462 L63.8462809,39.8146462 L63.8462809,36.0982852 L55.8388639,36.0982852 L55.8388639,20.7347722 Z M72.1985149,33.7611922 L72.1985149,29.6233882 L66.5281909,29.6233882 L66.5281909,33.7611922 L72.1985149,33.7611922 Z M63.8462809,33.7611922 L63.8462809,29.6233882 L58.2908959,29.6233882 L58.2908959,33.7611922 L63.8462809,33.7611922 Z M58.2908959,27.3246082 L63.8462809,27.3246082 L63.8462809,23.0718652 L58.2908959,23.0718652 L58.2908959,27.3246082 Z M66.5281909,23.0718652 L66.5281909,27.3246082 L72.1985149,27.3246082 L72.1985149,23.0718652 L66.5281909,23.0718652 Z M60.3597979,14.4897532 C61.5091879,16.0605862 62.5053259,17.7463582 63.3482119,19.5087562 L60.9728059,20.5432072 C60.0532939,18.5509312 58.9805299,16.8268462 57.8311399,15.2943262 L60.3597979,14.4897532 Z M95.9525749,37.5158662 L98.5578589,37.5158662 L98.5578589,40.1977762 L107.408162,40.1977762 C105.33926,38.9717602 103.730114,37.6691182 102.580724,36.2132242 L92.6576569,36.2132242 C91.3167019,37.6691182 89.6309299,39.0100732 87.6003409,40.1977762 L95.9525749,40.1977762 L95.9525749,37.5158662 Z M95.9525749,42.3049912 L88.7114179,42.3049912 L88.7114179,48.7032622 L86.1061339,48.7032622 L86.1061339,41.0023492 C84.4969879,41.8069222 82.7729029,42.5348692 80.9338789,43.1861902 L79.7461759,40.8874102 C83.8839799,39.5847682 87.1022719,38.0522482 89.3627389,36.2132242 L80.7040009,36.2132242 L80.7040009,33.9144442 L91.5848929,33.9144442 C92.0446489,33.2631232 92.4277789,32.6118022 92.7342829,31.9221682 L84.9184309,31.9221682 L84.9184309,21.7692232 L89.3627389,21.7692232 L89.3627389,19.3171912 L80.2442449,19.3171912 L80.2442449,17.0567242 L89.3627389,17.0567242 L89.3627389,14.4897532 L92.0063359,14.4897532 L92.0063359,17.0567242 L102.389159,17.0567242 L102.389159,14.4897532 L105.032756,14.4897532 L105.032756,17.0567242 L114.15125,17.0567242 L114.15125,19.3171912 L105.032756,19.3171912 L105.032756,21.7692232 L109.477064,21.7692232 L109.477064,31.9221682 L95.3012539,31.9221682 C95.0330629,32.6118022 94.7265589,33.2631232 94.3434289,33.9144442 L113.653181,33.9144442 L113.653181,36.2132242 L105.377573,36.2132242 C107.484788,38.0905612 110.626454,39.5847682 114.764258,40.6575322 L113.653181,42.9563122 C111.890783,42.3433042 110.358263,41.7302962 109.055621,41.0789752 L109.055621,45.7148482 C109.055621,47.7071242 107.944544,48.7415752 105.72239,48.7415752 L102.810602,48.7415752 L102.235907,46.4427952 L104.95613,46.5194212 C105.952268,46.5194212 106.450337,46.0596652 106.450337,45.1401532 L106.450337,42.3049912 L98.5578589,42.3049912 L98.5578589,49.6610872 L95.9525749,49.6610872 L95.9525749,42.3049912 Z M102.389159,19.3171912 L92.0063359,19.3171912 L92.0063359,21.7692232 L102.389159,21.7692232 L102.389159,19.3171912 Z M106.87178,30.0065182 L106.87178,27.7077382 L87.5237149,27.7077382 L87.5237149,30.0065182 L106.87178,30.0065182 Z M87.5237149,25.9070272 L106.87178,25.9070272 L106.87178,23.7614992 L87.5237149,23.7614992 L87.5237149,25.9070272 Z" id="弹幕" fill="#09BB07"></path>
            </g>
        </g>
    </g>
</svg>