<?xml version="1.0" encoding="UTF-8" standalone="no"?>
<svg width="72px" height="75px" viewBox="0 0 72 75" version="1.1" xmlns="http://www.w3.org/2000/svg" xmlns:xlink="http://www.w3.org/1999/xlink">
    <!-- Generator: Sketch 43.1 (39012) - http://www.bohemiancoding.com/sketch -->
    <title>minimize.maximize</title>
    <desc>Created with Sketch.</desc>
    <defs></defs>
    <g id="多媒体控件" stroke="none" stroke-width="1" fill="none" fill-rule="evenodd">
        <g id="Artboard" transform="translate(-482.000000, -537.000000)" fill="#FFFFFF">
            <g id="minimize.maximize" transform="translate(482.000000, 537.000000)">
                <path d="M29,26.0323772 L4.2026216,1.23499884 C3.24085146,0.273228702 1.69136896,0.276253796 0.73381138,1.23381138 C-0.23042212,2.19804488 -0.223214561,3.7444082 0.734998839,4.7026216 L25.5323772,29.5 L5.7548759,29.5 C4.49815369,29.5 3.5,30.5073593 3.5,31.75 C3.5,33.0013041 4.50954233,34 5.7548759,34 L31.2451241,34 C31.245937,34 31.2467497,33.9999996 31.2475624,33.9999987 C31.2483744,33.9999996 31.2491872,34 31.25,34 C31.874836,34 32.4366846,33.7482724 32.8426492,33.3411581 C33.2511066,32.9323653 33.5,32.3705168 33.5,31.75 C33.5,31.7491871 33.4999996,31.7483744 33.4999987,31.7475617 C33.4999996,31.7467497 33.5,31.745937 33.5,31.7451241 L33.5,6.2548759 C33.5,4.99815369 32.4926407,4 31.25,4 C29.9986959,4 29,5.00954233 29,6.2548759 L29,26.0323772 Z" id="Combined-Shape"></path>
                <path d="M44,49.4684233 L67.8288327,73.297256 C68.7907851,74.2592083 70.3405933,74.2561505 71.2983719,73.2983719 C72.262828,72.3339158 72.2556509,70.7872276 71.297256,69.8288327 L47.4684233,46 L67.2451241,46 C68.5018463,46 69.5,44.9926407 69.5,43.75 C69.5,42.4986959 68.4904577,41.5 67.2451241,41.5 L41.7548759,41.5 C41.754063,41.5 41.7532503,41.5000004 41.7524376,41.5000013 C41.7516256,41.5000004 41.7508129,41.5 41.75,41.5 C41.1294827,41.5 40.5676338,41.7488938 40.1605893,42.1545912 C39.7488934,42.5676347 39.5,43.1294832 39.5,43.75 C39.5,43.7508129 39.5000004,43.7516256 39.5000013,43.7524383 C39.5000004,43.7532503 39.5,43.754063 39.5,43.7548759 L39.5,69.2451241 C39.5,70.4904577 40.4986959,71.5 41.75,71.5 C42.9926407,71.5 44,70.5018463 44,69.2451241 L44,49.4684233 Z" id="Combined-Shape"></path>
            </g>
        </g>
    </g>
</svg>