<?xml version="1.0" encoding="UTF-8" standalone="no"?>
<svg width="50px" height="50px" viewBox="0 0 50 50" version="1.1" xmlns="http://www.w3.org/2000/svg" xmlns:xlink="http://www.w3.org/1999/xlink">
    <!-- Generator: Sketch 43.1 (39012) - http://www.bohemiancoding.com/sketch -->
    <title>maximize</title>
    <desc>Created with Sketch.</desc>
    <defs></defs>
    <g id="多媒体控件" stroke="none" stroke-width="1" fill="none" fill-rule="evenodd">
        <g id="Artboard" transform="translate(-367.000000, -369.000000)" fill="#FFFFFF">
            <g id="Group" transform="translate(367.000000, 369.000000)">
                <path d="M45,43.2828159 L29.5943163,27.8771322 C28.9997244,27.2825403 28.0549629,27.2875263 27.4691765,27.8733127 C26.879306,28.4631831 26.8851001,29.4105567 27.472996,29.9984526 L43.4745434,46 L29.5032506,46 C28.6654358,46 28,46.6715729 28,47.5 C28,48.3342028 28.6730282,49 29.5032506,49 L46.4967494,49 C46.4972913,49 46.4978331,48.9999997 46.4983749,48.9999992 C46.4989163,48.9999997 46.4994581,49 46.5,49 C46.9165573,49 47.2911231,48.8321816 47.5617662,48.560772 C47.8340711,48.2882435 48,47.9136779 48,47.5 C48,47.4994581 47.9999997,47.4989163 47.9999991,47.4983745 C47.9999997,47.4978331 48,47.4972913 48,47.4967494 L48,30.5032506 C48,29.6654358 47.3284271,29 46.5,29 C45.6657972,29 45,29.6730282 45,30.5032506 L45,43.2828159 Z" id="Combined-Shape"></path>
                <path d="M3,5.30313347 L18.5954164,20.8985499 C19.1900084,21.4931418 20.1347699,21.4881559 20.7205563,20.9023694 C21.3104267,20.312499 21.3046327,19.3651255 20.7167368,18.7772296 L4.93950721,3 L18.4967494,3 C19.3345642,3 20,2.32842712 20,1.5 C20,0.665797234 19.3269718,0 18.4967494,0 L1.5032506,0 C1.50270869,0 1.50216685,2.80964199e-07 1.50162509,8.42753312e-07 C1.50108374,2.84014504e-07 1.50054191,0 1.5,0 C1.08632181,0 0.711755889,0.165929183 0.440392893,0.436394125 C0.165928927,0.711756467 0,1.08632213 0,1.5 C0,1.50054191 2.84014504e-07,1.50108374 8.51902105e-07,1.50162551 C2.80964199e-07,1.50216685 0,1.50270869 0,1.5032506 L0,18.4967494 C0,19.3269718 0.665797234,20 1.5,20 C2.32842712,20 3,19.3345642 3,18.4967494 L3,5.30313347 Z" id="Combined-Shape"></path>
            </g>
        </g>
    </g>
</svg>