<?xml version="1.0" encoding="UTF-8"?>
<svg width="24px" height="24px" viewBox="0 0 24 24" version="1.1" xmlns="http://www.w3.org/2000/svg" xmlns:xlink="http://www.w3.org/1999/xlink">
    <!-- Generator: Sketch 54.1 (76490) - https://sketchapp.com -->
    <title>video_share</title>
    <desc>Created with Sketch.</desc>
    <g id="video_share" stroke="none" stroke-width="1" fill="none" fill-rule="evenodd">
        <g id="icon38" transform="translate(4.000000, 2.000000)" fill="#FFFFFF">
            <path d="M14.8,6.2 L12,6.2 L12,5 L15.0010434,5 C15.5508697,5 16,5.44583866 16,5.99580851 L16,19.0041915 C16,19.5510798 15.5541613,20 15.0041915,20 L0.995808514,20 C0.448920205,20 8.8817842e-16,19.5541613 8.8817842e-16,19.0041915 L0,5.99580851 C0,5.44892021 0.447248087,5 0.998956561,5 L4,5 L4,6.2 L1.2,6.2 L1.2,18.8 L14.8,18.8 L14.8,6.2 Z M8.59999394,2.26151638 L8.59999394,11.5 L7.3999939,11.5 L7.3999939,2.26152854 L5.31299427,4.34852817 L4.46446609,3.5 L7.29289322,0.671572875 C7.68341751,0.281048584 8.31658249,0.281048584 8.70710678,0.671572875 L11.5355339,3.5 L10.6870057,4.34852817 L8.59999394,2.26151638 Z" id="图标颜色"></path>
        </g>
    </g>
</svg>