<?xml version="1.0" encoding="UTF-8"?>
<svg width="144px" height="144px" viewBox="0 0 144 144" version="1.1" xmlns="http://www.w3.org/2000/svg" xmlns:xlink="http://www.w3.org/1999/xlink">
    <!-- Generator: Sketch 44.1 (41455) - http://www.bohemiancoding.com/sketch -->
    <title>音量3x</title>
    <desc>Created with Sketch.</desc>
    <defs></defs>
    <g id="Page-1" stroke="none" stroke-width="1" fill="none" fill-rule="evenodd">
        <g id="音量3x">
            <g id="Group-5">
                <rect id="Rectangle-4" fill="#D8D8D8" opacity="0" x="0" y="0" width="144" height="144"></rect>
                <path d="M78.4448389,44.1626123 C84.7046695,51.2921578 88.5,60.6389805 88.5,70.8722502 C88.5,81.723788 84.2322071,91.5785293 77.2835349,98.8495606 L72.5230595,95.138889 C78.6911417,88.9060388 82.5,80.3339477 82.5,70.8722502 C82.5,61.9835542 79.1385025,53.8799781 73.6173995,47.7634137 L78.4448389,44.1626123 Z M100.129273,27.9881283 C109.732768,39.6485147 115.5,54.5868779 115.5,70.8722502 C115.5,87.9808533 109.13496,103.602822 98.643734,115.499302 L93.9019157,111.803173 C103.603521,100.930964 109.5,86.5902055 109.5,70.8722502 C109.5,55.9318947 104.172511,42.2358409 95.3135991,31.5801537 L100.129273,27.9881283 Z M120.587326,12.728405 C133.359624,28.6528773 141,48.870311 141,70.8722502 C141,93.8915343 132.636723,114.957471 118.782928,131.197301 L114.045686,127.50474 C127.107599,112.285871 135,92.5007451 135,70.8722502 C135,50.2154092 127.800798,31.2400318 115.774548,16.3182711 L120.587326,12.728405 Z M6,54 L27,54 L56.9668022,32.5951413 L56.9668022,32.5951413 C57.4162148,32.2741323 58.0407649,32.378224 58.3617739,32.8276366 C58.4778947,32.9902058 58.5426598,33.1838301 58.5477196,33.3835479 L59.3478261,64.9646739 L58.5339061,110.598976 L58.5339061,110.598976 C58.5240573,111.151173 58.0684292,111.590833 57.5162323,111.580984 C57.3139271,111.577376 57.1174756,111.512483 56.9528269,111.394876 L27,90 L6,90 C4.34314575,90 3,88.6568542 3,87 L3,57 L3,57 C3,55.3431458 4.34314575,54 6,54 L6,54 Z" id="Combined-Shape" fill="#FFFFFF"></path>
            </g>
        </g>
    </g>
</svg>