<?xml version="1.0" encoding="UTF-8" standalone="no"?>
<svg xmlns:sketch="http://www.bohemiancoding.com/sketch/ns"
    height="96px"
    version="1.1"
    viewBox="0 0 96 96"
    width="96px"
    xmlns="http://www.w3.org/2000/svg">
    <!-- Generator: Sketch 3.3.3 (12081) - http://www.bohemiancoding.com/sketch -->
    <title>back_icon_pressed</title>
    <desc>Created with Sketch.</desc>
    <defs></defs>
    <g
        fill="none"
        fill-rule="evenodd"
        id="Page-1"
        stroke="none"
        stroke-width="1"
        sketch:type="MSPage">
        <g
            fill="#808080"
            id="back_icon_pressed"
            opacity="0.5"
            transform="translate(25.000000, 24.000000)"
            sketch:type="MSLayerGroup">
            <path
                d="M-3.55271368e-15,24 C8.00666389,16 16.0133278,8 24,3.55271368e-15 C25.5493544,1.36828964 26.9187838,2.87640449 28,4 C22.6205748,9.87765293 17.152853,15.4406991 12,21 C23.7601,20.9737828 35.8750521,20.9438202 48,21 L48,27 C35.8550604,27.0262172 23.7101208,26.9962547 12,27 C17.1128696,32.5593009 22.6105789,38.1423221 28,44 C26.8788005,45.133583 25.5193669,46.6516854 24,48 C15.9933361,40.019975 7.98667222,32.019975 -3.55271368e-15,24 L-3.55271368e-15,24 Z"
                id="Shape"
                sketch:type="MSShapeGroup"></path>
        </g>
    </g>
</svg>