<?xml version="1.0" encoding="UTF-8" standalone="no"?>
<svg xmlns:xlink="http://www.w3.org/1999/xlink"
    height="96px"
    version="1.1"
    viewBox="0 0 96 96"
    width="96px"
    xmlns="http://www.w3.org/2000/svg">
    <!-- Generator: Sketch 39.1 (31720) - http://www.bohemiancoding.com/sketch -->
    <title>More</title>
    <desc>Created with Sketch.</desc>
    <defs>
        <polygon
            id="path-1"
            points="15.9999111 0 0 0 0 80.99991 15.9999111 80.99991 15.9999111 0"></polygon>
    </defs>
    <g
        fill="none"
        fill-rule="evenodd"
        id="Buttonsheet"
        stroke="none"
        stroke-width="1">
        <g id="More">
            <g
                id="Page-1"
                transform="translate(40.000000, 8.000000)">
                <mask
                    fill="white"
                    id="mask-2">
                    <use xlink:href="#path-1"></use>
                </mask>
                <g id="Clip-2"></g>
                <path
                    d="M8,65 C3.58177778,65 0,68.5817778 0,73 C0,77.4182222 3.58177778,81 8,81 C12.4182222,81 16,77.4182222 16,73 C16,68.5817778 12.4182222,65 8,65 M8,32 C3.58177778,32 0,35.5817778 0,40 C0,44.4182222 3.58177778,48 8,48 C12.4182222,48 16,44.4182222 16,40 C16,35.5817778 12.4182222,32 8,32 M16,8 C16,3.58177778 12.4182222,0 8,0 C3.58177778,0 0,3.58177778 0,8 C0,12.4182222 3.58177778,16 8,16 C12.4182222,16 16,12.4182222 16,8 Z"
                    fill="#7C8085"
                    id="Fill-1"
                    mask="url(#mask-2)"></path>
            </g>
        </g>
    </g>
</svg>