<?xml version="1.0" encoding="UTF-8"?>
<svg width="24px" height="24px" viewBox="0 0 24 24" version="1.1" xmlns="http://www.w3.org/2000/svg" xmlns:xlink="http://www.w3.org/1999/xlink">
    <!-- Generator: Sketch 53.2 (72643) - https://sketchapp.com -->
    <title>画板 copy 15</title>
    <desc>Created with Sketch.</desc>
    <g id="画板-copy-15" stroke="none" stroke-width="1" fill="none" fill-rule="evenodd" fill-opacity="0.9">
        <g id="3.Icons/Outlined/more" fill="#000000">
            <g id="Icons/Tint-Color/Black" transform="translate(3.000000, 10.000000)">
                <path d="M3.75,2 C3.75,2.96635 2.96635,3.75 2,3.75 C1.03365,3.75 0.25,2.96635 0.25,2 C0.25,1.0333 1.03365,0.25 2,0.25 C2.96635,0.25 3.75,1.0333 3.75,2 Z M9,0.25 C9.96635,0.25 10.75,1.0333 10.75,2 C10.75,2.96635 9.96635,3.75 9,3.75 C8.03365,3.75 7.25,2.96635 7.25,2 C7.25,1.0333 8.03365,0.25 9,0.25 Z M16,0.25 C16.96635,0.25 17.75,1.0333 17.75,2 C17.75,2.96635 16.96635,3.75 16,3.75 C15.03365,3.75 14.25,2.96635 14.25,2 C14.25,1.0333 15.03365,0.25 16,0.25 Z" id="图标颜色"></path>
            </g>
        </g>
    </g>
</svg>