<?xml version="1.0" encoding="UTF-8"?>
<svg height="120px"
    version="1.1"
    viewBox="0 0 120 120"
    width="120px"
    xmlns="http://www.w3.org/2000/svg">
    <!-- Generator: Sketch Beta 47 (45292) - http://www.bohemiancoding.com/sketch -->
    <title>Artboard</title>
    <desc>Created with Sketch Beta.</desc>
    <defs></defs>
    <g
        fill="none"
        fill-rule="evenodd"
        id="Dialog"
        stroke="none"
        stroke-width="1">
        <g
            fill="#1AAD19"
            id="Artboard">
            <g id="Fill-3-+-Fill-36">
                <path
                    d="M31.4501101,60.4840995 L32.7111039,58.7711205 L32.7111039,58.7711205 C33.3659291,57.8815826 34.6178828,57.6913104 35.5074207,58.3461356 C35.517392,58.3534758 35.5272949,58.3609085 35.5371282,58.3684327 L49.7473384,69.2417732 L49.7473384,69.2417732 C50.4887024,69.8090486 51.5238951,69.7880144 52.2416035,69.1910918 L89.7303877,38.0114339 L89.7303877,38.0114339 C90.5209471,37.3539206 91.6812599,37.403005 92.4134651,38.1249353 L93.1476041,38.8487722 L93.1476041,38.8487722 C93.934152,39.6242826 93.9430996,40.8905809 93.1675893,41.6771288 C93.1601565,41.6846674 93.1526639,41.6921468 93.1451123,41.6995665 L52.4508253,81.6827422 L52.4508253,81.6827422 C51.6629229,82.4568763 50.3966422,82.445715 49.622508,81.6578127 C49.6189878,81.6542299 49.6154811,81.6506338 49.611988,81.6470246 L31.6236177,63.0606712 L31.6236177,63.0606712 C30.9447536,62.3592399 30.8714182,61.2702153 31.4501101,60.4840995 Z"
                    id="Fill-36"></path>
            </g>
        </g>
    </g>
</svg>