<?xml version="1.0" encoding="UTF-8"?>
<svg width="72px" height="72px" viewBox="0 0 72 72" version="1.1" xmlns="http://www.w3.org/2000/svg" xmlns:xlink="http://www.w3.org/1999/xlink">
    <!-- Generator: Sketch 52.5 (67469) - http://www.bohemiancoding.com/sketch -->
    <title>静音3x  改 </title>
    <desc>Created with Sketch.</desc>
    <g id="静音3x--改-" stroke="none" stroke-width="1" fill="none" fill-rule="evenodd">
        <rect id="Rectangle" x="0" y="0" width="72" height="72"></rect>
        <path d="M50.3915758,17.2109289 L37.4901549,24.8 L21,24.8 C20.3372583,24.8 19.8,25.3372583 19.8,26 L19.8,46 C19.8,46.6627417 20.3372583,47.2 21,47.2 L37.4901549,47.2 L50.3915758,54.7890711 C50.5759878,54.8975488 50.7860487,54.9547501 51,54.9547501 C51.6627417,54.9547501 52.2,54.4174918 52.2,53.7547501 L52.2,18.2452499 C52.2,18.0312986 52.1427987,17.8212378 52.0343211,17.6368258 C51.6982977,17.065586 50.9628156,16.8749055 50.3915758,17.2109289 Z" id="Combined-Shape" stroke="#FFFFFF" stroke-width="3.6"></path>
        <rect id="Rectangle-2" fill="#FFFFFF" transform="translate(38.335518, 36.335518) rotate(-45.000000) translate(-38.335518, -36.335518) " x="36.5355176" y="7.96253927" width="3.60000014" height="56.7459569"></rect>
    </g>
</svg>