<?xml version="1.0" encoding="UTF-8" standalone="no"?>
<svg height="80px"
    version="1.1"
    viewBox="0 0 80 80"
    width="80px"
    xmlns="http://www.w3.org/2000/svg">
    <!-- Generator: Sketch 3.8.3 (29802) - http://www.bohemiancoding.com/sketch -->
    <title>app_attach_file_icon_sight_in_gird</title>
    <desc>Created with Sketch.</desc>
    <defs></defs>
    <g
        fill="none"
        fill-rule="evenodd"
        id="Page-1"
        stroke="none"
        stroke-width="1">
        <g
            id="app_attach_file_icon_sight_in_gird"
            stroke="#FFFFFF"
            stroke-width="4"
            transform="translate(4.000000, 16.000000)">
            <g id="最终稿">
                <g id="xiaoshipin">
                    <g id="Oval-12-+-Fill-10-Copy">
                        <path
                            d="M36.9255669,47.0546646 C56.1106425,47.0546641 71.4591875,26.6687982 71.4591875,26.6687982 C72.1488951,25.8172197 72.1774306,24.4038409 71.5036972,23.523014 C71.5036972,23.523014 55.6904308,0.967641972 36.5053529,0.967641972 C17.3202749,0.967641972 1.45983769,23.5417239 1.45983769,23.5417239 C0.801488681,24.4171808 0.842711753,25.8193503 1.56282838,26.6513888 C1.56282838,26.6513888 17.7404914,47.0546652 36.9255669,47.0546646 L36.9255669,47.0546646 Z"
                            id="Oval-12"></path>
                        <path
                            d="M22.4277397,20.4992178 C22.1484136,21.58994 22,22.7322641 22,23.9088833 C22,31.5552107 28.2676923,37.7532086 36,37.7532086 C43.7323077,37.7532086 50,31.5552107 50,23.9088833 C50,16.262556 43.7323077,10.0645581 36,10.0645581 C34.3474553,10.0645581 32.7618084,10.3476579 31.2899463,10.8674919 L34.6025564,20.1950619 L31.98528,23.1388687 L22.4277397,20.4992178 L22.4277397,20.4992178 Z"
                            id="Fill-10"></path>
                    </g>
                </g>
            </g>
        </g>
    </g>
</svg>