<?xml version="1.0" encoding="UTF-8"?>
<svg width="29px" height="27px" viewBox="0 0 29 27" version="1.1" xmlns="http://www.w3.org/2000/svg" xmlns:xlink="http://www.w3.org/1999/xlink">
    <!-- Generator: Sketch 54.1 (76490) - https://sketchapp.com -->
    <title>Rectangle</title>
    <desc>Created with Sketch.</desc>
    <g id="页面1" stroke="none" stroke-width="1" fill="none" fill-rule="evenodd">
        <g id="14订阅消息设置" transform="translate(-333.000000, -227.000000)">
            <g id="➤右侧区域" transform="translate(335.000000, 229.000000)" fill="#07C160">
                <g id="1.iOS/3.Element/Info">
                    <g id="Group-19">
                        <path d="M12,24 C5.372583,24 0,18.627417 0,12 C0,5.372583 5.372583,0 12,0 C18.627417,0 24,5.372583 24,12 C24,18.627417 18.627417,24 12,24 Z M12,22.56 C17.832127,22.56 22.56,17.832127 22.56,12 C22.56,6.16787304 17.832127,1.44 12,1.44 C6.16787304,1.44 1.44,6.16787304 1.44,12 C1.44,17.832127 6.16787304,22.56 12,22.56 Z M11.2799995,9.6 L12.7199996,9.6 L12.7199996,18 L11.2799995,18 L11.2799995,9.6 Z M12,8.4 C11.3372583,8.4 10.8,7.8627417 10.8,7.2 C10.8,6.5372583 11.3372583,6 12,6 C12.6627417,6 13.2,6.5372583 13.2,7.2 C13.2,7.8627417 12.6627417,8.4 12,8.4 Z" id="Combined-Shape"></path>
                    </g>
                </g>
            </g>
            <rect id="Rectangle" fill-opacity="0" fill="#D8D8D8" fill-rule="nonzero" x="333" y="227" width="29" height="27"></rect>
        </g>
    </g>
</svg>