<?xml version="1.0" encoding="UTF-8"?>
<svg width="16px" height="16px" viewBox="0 0 16 16" version="1.1" xmlns="http://www.w3.org/2000/svg" xmlns:xlink="http://www.w3.org/1999/xlink">
    <!-- Generator: Sketch 57.1 (83088) - https://sketch.com -->
    <title>切片</title>
    <desc>Created with Sketch.</desc>
    <g id="页面-1" stroke="none" stroke-width="1" fill="none" fill-rule="evenodd">
        <rect id="矩形" x="0" y="0" width="16" height="16"></rect>
        <path d="M4.5,8 C4.5,8.64423333 3.97756667,9.16666667 3.33333333,9.16666667 C2.6891,9.16666667 2.16666667,8.64423333 2.16666667,8 C2.16666667,7.35553333 2.6891,6.83333333 3.33333333,6.83333333 C3.97756667,6.83333333 4.5,7.35553333 4.5,8 Z" id="Path" fill-opacity="0.3" fill="#000000"></path>
        <path d="M8,6.83333333 C8.64423333,6.83333333 9.16666667,7.35553333 9.16666667,8 C9.16666667,8.64423333 8.64423333,9.16666667 8,9.16666667 C7.35576667,9.16666667 6.83333333,8.64423333 6.83333333,8 C6.83333333,7.35553333 7.35576667,6.83333333 8,6.83333333" id="Path" fill-opacity="0.3" fill="#000000"></path>
        <path d="M12.6666667,6.83333333 C13.3109,6.83333333 13.8333333,7.35553333 13.8333333,8 C13.8333333,8.64423333 13.3109,9.16666667 12.6666667,9.16666667 C12.0224333,9.16666667 11.5,8.64423333 11.5,8 C11.5,7.35553333 12.0224333,6.83333333 12.6666667,6.83333333" id="Path" fill-opacity="0.3" fill="#000000"></path>
    </g>
</svg>