<?xml version="1.0" encoding="UTF-8"?>
<svg width="24px" height="24px" viewBox="0 0 24 24" version="1.1" xmlns="http://www.w3.org/2000/svg" xmlns:xlink="http://www.w3.org/1999/xlink">
    <!-- Generator: Sketch 58 (84663) - https://sketch.com -->
    <title>3.Icons/Filld/dislike</title>
    <desc>Created with Sketch.</desc>
    <g id="3.Icons/Filld/dislike" stroke="none" stroke-width="1" fill="none" fill-rule="evenodd">
        <path d="M3.91324535,7.14144958 L15.1590151,18.3863102 L13.0207783,20.5268749 C12.6603473,20.8874119 12.0931204,20.9151738 11.7008134,20.6101696 L11.6066017,20.5269119 L4.48114108,13.4014513 C2.81458001,11.6831205 2.62518894,9.06419201 3.91324535,7.14144958 Z M3.51471863,2.5 L6.27059457,5.25439133 C8.05914208,4.56536098 10.1639814,4.94215598 11.6066017,6.38477631 C11.7894084,6.56758302 12.0251107,6.79494284 12.3137085,7.06685577 C12.6023063,6.79494284 12.8380086,6.56758302 13.0208153,6.38477631 C14.9734367,4.43215485 18.1392616,4.43215485 20.0918831,6.38477631 C22.0263413,8.31923451 22.0443356,11.4444307 20.145866,13.4010414 L17.2800585,16.265 L20.4852814,19.4705627 L19.4246212,20.5312229 L16.2190585,17.325 L16.2190151,17.3263102 L4.92607684,6.03275709 L2.45405845,3.56066017 L3.51471863,2.5 Z" id="形状结合" fill-opacity="0.9" fill="#000000"></path>
        <g id="编组" transform="translate(11.292893, 11.085786) rotate(-45.000000) translate(-11.292893, -11.085786) translate(10.292893, -0.914214)"></g>
    </g>
</svg>