<?xml version="1.0" encoding="UTF-8"?>
<svg width="24px" height="24px" viewBox="0 0 24 24" version="1.1" xmlns="http://www.w3.org/2000/svg" xmlns:xlink="http://www.w3.org/1999/xlink">
    <!-- Generator: Sketch 61.2 (89653) - https://sketch.com -->
    <title>icons_filled_halfstar</title>
    <desc>Created with Sketch.</desc>
    <defs>
        <linearGradient x1="95.3942871%" y1="35.5981445%" x2="4.30908203%" y2="35.5981445%" id="linearGradient-1">
            <stop stop-color="#000000" stop-opacity="0.1" offset="0%"></stop>
            <stop stop-color="#000000" stop-opacity="0.1" offset="49.2504223%"></stop>
            <stop stop-color="#000000" stop-opacity="0.5" offset="49.6937695%"></stop>
            <stop stop-color="#000000" stop-opacity="0.503687719" offset="100%"></stop>
        </linearGradient>
    </defs>
    <g id="icons_filled_halfstar" stroke="none" stroke-width="1" fill="none" fill-rule="evenodd">
        <g id="Group-25"></g>
        <path d="M11.7673294,18.1223222 L7.01888355,20.6187279 C6.77446126,20.7472283 6.47214768,20.653255 6.34364728,20.4088327 C6.29247774,20.3115025 6.27482041,20.2000185 6.29340883,20.0916396 L7.20028129,14.8041675 C7.22810026,14.6419704 7.17432602,14.4764703 7.05648298,14.3616017 L3.21490956,10.6169931 C3.01716777,10.4242425 3.01312162,10.1076859 3.20587223,9.90994411 C3.28262653,9.83120229 3.38319773,9.77995871 3.49201625,9.76414645 L8.80094014,8.99271465 C8.96379522,8.96905042 9.10457801,8.86676574 9.17740902,8.719194 L11.551632,3.90849288 C11.6738431,3.66086605 11.973656,3.55919655 12.2212829,3.68140769 C12.3198892,3.73007281 12.3997029,3.80988657 12.448368,3.90849288 L14.822591,8.719194 C14.895422,8.86676574 15.0362048,8.96905042 15.1990599,8.99271465 L20.5079838,9.76414645 C20.7812562,9.80385526 20.9705969,10.0575767 20.9308881,10.3308491 C20.9150758,10.4396676 20.8638323,10.5402388 20.7850904,10.6169931 L16.943517,14.3616017 C16.825674,14.4764703 16.7718997,14.6419704 16.7997187,14.8041675 L17.7065912,20.0916396 C17.7532717,20.3638079 17.5704778,20.6222858 17.2983095,20.6689663 C17.1899307,20.6875548 17.0784467,20.6698974 16.9811164,20.6187279 L12.2326706,18.1223222 C12.0870086,18.0457431 11.9129914,18.0457431 11.7673294,18.1223222 Z" id="星形" fill="url(#linearGradient-1)"></path>
    </g>
</svg>