<svg width="44px" height="44px" viewBox="0 0 44 44" version="1.1" 
    xmlns="http://www.w3.org/2000/svg">
    <path fill="#EDEDED" fill-opacity="0.9" d="M22,44 C34.1502645,44 44,34.1502645 44,22 C44,9.8497355 34.1502645,0 22,0 C9.8497355,0 0,9.8497355 0,22 C0,34.1502645 9.8497355,44 22,44 Z"></path>
    <path fill="#000000" fill-opacity="0.9" transform="translate(17.600000, 13.750000)" d="M1.65181512,0.169654581 C1.48022963,0.0587862692 1.28196027,0 1.07961848,0 C0.483361656,0 0,0.499711156 0,1.11613611 L0,15.3837145 C0,15.5929004 0.0568629059,15.7978761 0.164103839,15.9752654 C0.480119322,16.4979928 1.14619035,16.6569006 1.65181512,16.330196 L12.6924337,9.19640683 C12.8314552,9.1065794 12.9488632,8.98520013 13.0357516,8.84147625 C13.3517671,8.31874894 13.1980584,7.63014834 12.6924337,7.30344377 L1.65181512,0.169654581 Z"></path>
</svg>