<svg viewBox="0 0 132 132" version="1.1" 
  xmlns="http://www.w3.org/2000/svg">
  <rect fill="#F1F1F1" x="0" y="0" width="132" height="132"></rect>
  <path fill="#C9C9C9" d="M30,96.2222222 L30,93.6361948 C30,91.0480809 31.8877298,88.031652 34.2218436,86.8961457 L55.6716029,76.4612069 C58.7824817,74.9478179 59.5058238,71.5958804 57.2593714,68.9415247 L55.8893534,67.3227435 C53.1018352,64.0290772 50.8421053,57.8758756 50.8421053,53.5684309 L50.8421053,47.1095259 C50.8421053,38.7647652 57.6455602,32 66,32 C74.3714741,32 81.1578947,38.7734808 81.1578947,47.1118949 L81.1578947,53.5718126 C81.1578947,57.875118 78.8877438,64.0463613 76.1106461,67.3281648 L74.7406279,68.9471681 C72.5066491,71.587147 73.2045008,74.9472799 76.3283962,76.4663726 L97.7781563,86.8969953 C100.109816,88.0308385 102,91.0284205 102,93.6361948 L102,96.2222222 C102,98.3086313 100.308631,100 98.2222222,100 L33.7777778,100 C31.6913687,100 30,98.3086313 30,96.2222222 Z"></path>
</svg>