<?xml version="1.0" encoding="UTF-8"?>
<svg width="72px" height="72px" viewBox="0 0 72 72" version="1.1" xmlns="http://www.w3.org/2000/svg" xmlns:xlink="http://www.w3.org/1999/xlink">
    <!-- Generator: Sketch 52.2 (67145) - http://www.bohemiancoding.com/sketch -->
    <title>icons_filled_info</title>
    <desc>Created with Sketch.</desc>
    <g id="icons_filled_info" stroke="none" stroke-width="1" fill="none" fill-rule="evenodd">
        <g id="common_icons_info" fill="#000000" fill-rule="nonzero">
            <g id="Group-19" transform="translate(6.000000, 6.000000)">
                <path d="M30,60 C13.4314575,60 0,46.5685425 0,30 C0,13.4314575 13.4314575,0 30,0 C46.5685425,0 60,13.4314575 60,30 C60,46.5685425 46.5685425,60 30,60 Z M27.75,24 L27.75,45 L32.25,45 L32.25,24 L27.75,24 Z M30,21 C31.6568542,21 33,19.6568542 33,18 C33,16.3431458 31.6568542,15 30,15 C28.3431458,15 27,16.3431458 27,18 C27,19.6568542 28.3431458,21 30,21 Z" id="Combined-Shape"></path>
            </g>
        </g>
    </g>
</svg>